<?xml version="1.0" standalone="no"?>
<!DOCTYPE svg PUBLIC "-//W3C//DTD SVG 1.1//EN" "http://www.w3.org/Graphics/SVG/1.1/DTD/svg11.dtd" >
<svg>
<metadata>
Created by FontForge 20090914 at Thu Feb 23 23:36:53 2012
 By root
Copyright (c) 2000, 2006 Nick Curtis. All Rights Reserved. Distributed under non-exclusive license by 1001 Free Fonts.
</metadata>
<defs>
<font id="GrenadierNF" horiz-adv-x="123" >
  <font-face 
    font-family="Grenadier NF"
    font-weight="400"
    font-stretch="normal"
    units-per-em="1000"
    panose-1="2 1 5 3 2 3 4 2 3 4"
    ascent="800"
    descent="-200"
    x-height="640"
    cap-height="756"
    bbox="-78 -218 1214 880"
    underline-thickness="50"
    underline-position="-55"
    unicode-range="U+0020-U+2212"
  />
<missing-glyph horiz-adv-x="250" 
 />
    <glyph glyph-name=".notdef" horiz-adv-x="250" 
 />
    <glyph glyph-name="exclam" unicode="!" 
d="M24 -1v81h75v-81h-75zM24 124v632h75v-632h-75z" />
    <glyph glyph-name="quotedbl" unicode="&#x22;" horiz-adv-x="308" 
d="M88 623l-64 40l86 134l64 -40zM198 623l-64 40l86 134l64 -40z" />
    <glyph glyph-name="numbersign" unicode="#" horiz-adv-x="426" 
d="M43 0l48 341h-67v75h78l10 65h-88v75h98l29 200h76l-29 -200h65l29 200h76l-29 -200h63v-75h-73l-9 -65h82v-75h-93l-48 -341h-76l48 341h-65l-48 -341h-77zM179 416h65l9 65h-65z" />
    <glyph glyph-name="dollar" unicode="$" horiz-adv-x="292" 
d="M268 239q0 -33 -16.5 -63t-42.5 -48v-129h-76v106q-13 0 -26 3t-25 7l27 71q12 -5 22 -5q23 0 42 16t19 38q0 11 -5.5 21t-13.5 19l-101 104q-24 25 -36 56t-12 63q0 23 7.5 46t21.5 43.5t34 36t46 24.5v108h76v-103l22 -4q5 -2 10.5 -3.5t10.5 -3.5l-28 -70q-18 7 -41 7
q-37 0 -60 -24t-23 -59q0 -18 7 -33.5t18.5 -29.5t25 -27l26.5 -26l51 -52q22 -22 31 -44.5t9 -44.5z" />
    <glyph glyph-name="percent" unicode="%" horiz-adv-x="799" 
d="M391 576q0 -38 -14.5 -71.5t-39.5 -58.5t-58.5 -39.5t-70.5 -14.5q-38 0 -71.5 14.5t-58.5 39.5t-39.5 58.5t-14.5 71.5t14.5 71.5t39.5 58.5t58.5 39.5t71.5 14.5q37 0 70.5 -14.5t58.5 -39.5t39.5 -58.5t14.5 -71.5zM320 576q0 23 -9 43.5t-24 36t-35.5 24.5t-43.5 9
q-24 0 -44.5 -9t-36 -24.5t-24.5 -36t-9 -43.5t9 -43.5t24.5 -36t36 -24.5t44.5 -9q22 0 42.5 9t36 24.5t24.5 36t9 43.5zM245 0h-77l380 756h78zM775 183q0 -38 -14.5 -71.5t-39.5 -58.5t-58.5 -39.5t-70.5 -14.5q-38 0 -71.5 14.5t-58.5 39.5t-39.5 58.5t-14.5 71.5
t14.5 71.5t39.5 58.5t58.5 39.5t71.5 14.5q37 0 70.5 -14.5t58.5 -39.5t39.5 -58.5t14.5 -71.5zM704 183q0 23 -9 43.5t-24 36t-35.5 24.5t-43.5 9q-24 0 -44.5 -9t-36 -24.5t-24.5 -36t-9 -43.5t9 -43.5t24.5 -36t36 -24.5t44.5 -9q22 0 42.5 9t36 24.5t24.5 36t9 43.5z
" />
    <glyph glyph-name="ampersand" unicode="&#x26;" horiz-adv-x="674" 
d="M488 271q-33 28 -71 41t-80 13q-21 0 -41.5 -3.5t-40.5 -11.5l-27 70q27 10 54.5 15.5t56.5 5.5q63 0 119.5 -25t99 -68t67.5 -99.5t25 -119.5q0 -22 -3 -44.5t-10 -44.5h-80q9 23 13 44.5t4 45.5q0 54 -22 101q-13 -41 -37.5 -75.5t-58.5 -60.5t-75 -40.5t-87 -14.5
q-56 0 -105 21.5t-85.5 58t-58 85.5t-21.5 104q0 41 12 78.5t33 69.5t50 57t64 41q-16 19 -25.5 43t-9.5 52q0 30 11.5 56.5t31 46.5t46.5 31.5t57 11.5t56.5 -11.5t46.5 -31.5t31.5 -46.5t11.5 -56.5h-76q0 29 -20.5 49.5t-49.5 20.5t-50 -20.5t-21 -49.5t21 -50t50 -21
v-76q-40 0 -75 -15.5t-61.5 -42t-42 -61.5t-15.5 -75q0 -39 15.5 -74t41.5 -62t61.5 -42.5t75.5 -15.5t75.5 15.5t61.5 42.5t41.5 62.5t15.5 75.5z" />
    <glyph glyph-name="quotesingle" unicode="'" horiz-adv-x="198" 
d="M88 623l-64 40l86 134l64 -40z" />
    <glyph glyph-name="parenleft" unicode="(" horiz-adv-x="307" 
d="M233 -144q-106 94 -157.5 215t-51.5 250q0 127 52 247.5t157 214.5l50 -57q-91 -81 -137 -186.5t-46 -218.5t45 -219.5t138 -189.5z" />
    <glyph glyph-name="parenright" unicode=")" horiz-adv-x="307" 
d="M24 -88q91 81 136.5 184.5t46.5 212.5v11q0 112 -45.5 218.5t-137.5 187.5l50 57q51 -45 90 -98.5t65 -112t39.5 -120t14.5 -123.5v-11q-1 -128 -52.5 -248t-156.5 -213l-50 55v0z" />
    <glyph glyph-name="asterisk" unicode="*" horiz-adv-x="251" 
d="M198 565l-44 26v-51h-57v52l-44 -26l-29 49l45 25l-45 26l28 49l45 -26v52h57v-51l44 25l29 -49l-45 -26l45 -26z" />
    <glyph glyph-name="plus" unicode="+" horiz-adv-x="426" 
d="M250 341v-152h-75v152h-151v75h151v151h75v-151h152v-75h-152z" />
    <glyph glyph-name="comma" unicode="," horiz-adv-x="198" 
d="M88 -87l-64 40l86 134l64 -40z" />
    <glyph glyph-name="hyphen" unicode="-" horiz-adv-x="237" 
d="M24 341v75h189v-75h-189z" />
    <glyph glyph-name="period" unicode="." 
d="M24 -1v81h75v-81h-75z" />
    <glyph glyph-name="slash" unicode="/" horiz-adv-x="318" 
d="M101 -90h-77l192 843h78z" />
    <glyph glyph-name="zero" unicode="0" horiz-adv-x="804" 
d="M780 378q0 -78 -30 -146.5t-81.5 -120t-120.5 -81.5t-146 -30q-78 0 -146.5 30t-120 81.5t-81.5 120t-30 146.5q0 77 30 146t81.5 120.5t120 81.5t146.5 30q77 0 146 -30t120.5 -81.5t81.5 -120.5t30 -146zM704 378q0 62 -24 117t-65 96.5t-96 65.5t-117 24t-117 -24
t-96.5 -65.5t-65.5 -96.5t-24 -117t24 -117t65.5 -96t96.5 -65t117 -24q61 0 116 24t96.5 65.5t65.5 96t24 116.5z" />
    <glyph glyph-name="one" unicode="1" horiz-adv-x="225" 
d="M125 0v599l-50 -47l-51 56l177 163v-771h-76z" />
    <glyph glyph-name="two" unicode="2" horiz-adv-x="464" 
d="M24 0l242 265q19 21 37 45.5t31.5 51t21.5 54.5t8 57q0 56 -26.5 95.5t-67 64t-89.5 36t-94 11.5v76q64 0 127.5 -18.5t113.5 -54t81 -88t31 -121.5q0 -72 -34.5 -139t-83.5 -121l-127 -139h222v-75h-393z" />
    <glyph glyph-name="three" unicode="3" horiz-adv-x="377" 
d="M353 269q0 -54 -21.5 -103t-58.5 -86t-86.5 -58.5t-104.5 -21.5h-51v75h50q40 0 75.5 15.5t62.5 42.5t43 62t16 74q0 40 -15.5 75t-42 61.5t-61.5 42t-75 15.5v76q29 0 49.5 21t20.5 50q0 28 -19.5 49t-48.5 21h-62v76h62q29 0 55.5 -12t46 -32.5t31 -47t11.5 -54.5
q0 -57 -35 -95q36 -17 65 -42t49.5 -57t32 -69.5t11.5 -77.5z" />
    <glyph glyph-name="four" unicode="4" horiz-adv-x="426" 
d="M372 129v-129h-76v129h-272l348 651v-576h30v-75h-30zM296 479l-146 -275h146v275z" />
    <glyph glyph-name="five" unicode="5" horiz-adv-x="371" 
d="M347 269q0 -54 -21.5 -103t-58.5 -86t-86.5 -58.5t-104.5 -21.5h-52v75h51q40 0 75.5 15.5t62.5 42t42.5 62t15.5 74.5q0 40 -15.5 75t-42 61.5t-61.5 42t-75 15.5h-49l80 293h217v-76h-160l-40 -145q47 -9 87.5 -33.5t70.5 -60.5t47 -80t17 -92z" />
    <glyph glyph-name="six" unicode="6" horiz-adv-x="587" 
d="M527 124q-37 -66 -100.5 -100.5t-133.5 -34.5q-59 0 -108.5 23t-85 60.5t-55.5 86t-20 100.5q0 34 8.5 67t26.5 65l209 365h87l-137 -240q20 6 39 8.5t38 2.5q56 0 105 -22.5t85 -60.5t57 -87t21 -101q0 -32 -8 -65.5t-28 -66.5zM462 161q25 46 25 96q0 36 -13.5 71
t-39 62t-61.5 44t-80 17q-36 0 -71 -13.5t-62 -38.5t-44 -61t-17 -82q0 -45 17 -81t44.5 -60.5t62 -37.5t68.5 -13q52 0 97.5 24t73.5 73z" />
    <glyph glyph-name="seven" unicode="7" horiz-adv-x="446" 
d="M106 0h-82l284 680h-236v76h350z" />
    <glyph glyph-name="eight" unicode="8" horiz-adv-x="587" 
d="M563 269q0 -55 -21.5 -104t-58 -85.5t-86 -58t-104.5 -21.5t-104 21.5t-85.5 58t-58 85.5t-21.5 104q0 41 11.5 78.5t32.5 69.5t50 57t64 41q-16 19 -25.5 43t-9.5 52q0 30 11.5 56.5t31.5 46.5t46.5 31.5t56.5 11.5t57 -11.5t47 -31.5t31.5 -46.5t11.5 -56.5
q0 -28 -9.5 -52t-25.5 -43q35 -16 64 -41t50 -57t32.5 -69.5t11.5 -78.5zM487 269q0 40 -15.5 75t-42 61.5t-61.5 42t-75 15.5q-39 0 -74.5 -15.5t-61.5 -42t-41.5 -62t-15.5 -74.5t15 -74t41.5 -62t61.5 -42.5t75 -15.5t75 15.5t61.5 42.5t42 62t15.5 74zM364 610
q0 29 -21 49.5t-50 20.5q-28 0 -49 -20.5t-21 -49.5t21 -50t49 -21q29 0 50 21t21 50z" />
    <glyph glyph-name="nine" unicode="9" horiz-adv-x="587" 
d="M319 0h-87l138 241q-20 -6 -39.5 -8.5t-38.5 -2.5q-56 0 -105 22.5t-85 60t-57 86.5t-21 102q0 62 24.5 111.5t63.5 84t87.5 53t96.5 18.5q60 0 109.5 -23t84.5 -61.5t54 -87t19 -99.5q0 -34 -8.5 -67t-26.5 -65zM481 550q-20 70 -73 106t-115 36q-32 0 -66.5 -12.5
t-62.5 -37t-46 -60.5t-18 -83q0 -37 15 -72t41 -62t61.5 -43.5t76.5 -16.5q36 0 70.5 13.5t62 39t44.5 61.5t17 81q0 26 -7 50z" />
    <glyph glyph-name="colon" unicode=":" 
d="M24 -1v81h75v-81h-75zM24 219v81h75v-81h-75z" />
    <glyph glyph-name="semicolon" unicode=";" horiz-adv-x="200" 
d="M88 -87l-64 40l86 134l64 -40zM101 219v81h75v-81h-75z" />
    <glyph glyph-name="less" unicode="&#x3c;" horiz-adv-x="426" 
d="M24 301v96l378 164v-75l-316 -137l316 -136v-75z" />
    <glyph glyph-name="equal" unicode="=" horiz-adv-x="426" 
d="M24 411v75h378v-75h-378zM24 271v75h378v-75h-378z" />
    <glyph glyph-name="greater" unicode="&#x3e;" horiz-adv-x="426" 
d="M24 138v75l316 136l-316 137v75l378 -164v-96z" />
    <glyph glyph-name="question" unicode="?" horiz-adv-x="335" 
d="M51 -1v81h75v-81h-75zM277 468q-28 -40 -50.5 -69l-39.5 -52t-29 -44t-19 -44.5t-10.5 -53.5t-3.5 -72h-76q0 65 6.5 106.5t22 75.5t41.5 68l65 85q17 22 27 36t15.5 25t7 21t1.5 24q0 19 -7 38t-20.5 34t-32.5 24.5t-43 9.5q-18 0 -35.5 -5.5t-32.5 -14.5l-40 64
q24 14 53 23t57 9q38 0 70.5 -16t56 -41.5t37 -58.5t13.5 -67q0 -56 -34 -105z" />
    <glyph glyph-name="at" unicode="@" horiz-adv-x="739" 
d="M654 98q-60 -37 -128.5 -54t-137.5 -17q-83 0 -150 30t-114.5 81t-73.5 119.5t-26 146.5q0 77 25.5 145.5t72 119.5t113 80.5t149.5 29.5q73 0 133.5 -24.5t104.5 -68.5t68.5 -104t24.5 -130q0 -36 -8 -74t-25.5 -69.5t-45 -51.5t-66.5 -20q-18 0 -40 8t-44 23
q-27 -25 -58.5 -39t-60.5 -14q-38 0 -68.5 14.5t-51.5 39t-32 57t-11 68.5q0 35 11 67t32 56t51.5 38.5t68.5 14.5q29 0 58.5 -12t55.5 -35l43 25v-188q0 -19 11 -34.5t35 -15.5q23 0 37.5 19t22 44.5t10 50.5t2.5 38q0 54 -19 99t-53.5 77t-82 49.5t-103.5 17.5
q-67 0 -120.5 -23.5t-90.5 -64.5t-57 -96t-20 -117q0 -63 20.5 -118t58.5 -96t92 -64.5t121 -23.5q57 0 114.5 14.5t108.5 43.5zM450 415q0 35 -24 59t-59 24q-24 0 -41 -9t-27.5 -24t-15 -33.5t-4.5 -37.5t4.5 -38t15 -34t27.5 -24t41 -9q16 0 31.5 7t26.5 18.5t18 26.5
t7 32v42z" />
    <glyph glyph-name="A" unicode="A" horiz-adv-x="493" 
d="M426 217v-217h-76v217h-250v-217h-76v203q0 85 25.5 165.5t71.5 149t110.5 122.5t142.5 87l52 22v-456h43v-76h-43zM350 632q-95 -55 -158.5 -144t-83.5 -195h242v339z" />
    <glyph glyph-name="B" unicode="B" horiz-adv-x="431" 
d="M407 270q0 -55 -21.5 -104t-58 -86t-85.5 -58.5t-104 -21.5h-9.5t-9.5 -1h-19v461q-11 -2 -22 -5.5t-22 -8.5l-32 68q38 17 76 22v220h38q29 0 55 -11.5t45.5 -31t31 -45.5t11.5 -55q0 -28 -10 -52t-27 -44q37 -16 67 -41.5t51.5 -58t33 -70t11.5 -77.5zM331 270
q0 34 -11.5 65.5t-32.5 57t-49.5 43t-62.5 24.5v-381q34 7 62.5 24.5t49.5 43t32.5 57t11.5 66.5zM175 558q15 10 22.5 24.5t7.5 30.5t-7.5 31t-22.5 25v-111z" />
    <glyph glyph-name="C" unicode="C" horiz-adv-x="426" 
d="M402 0q-78 0 -146.5 30t-120 81.5t-81.5 120t-30 146.5q0 77 30 146t81.5 120.5t120 81.5t146.5 30v-75q-62 0 -117 -24t-96.5 -65.5t-65.5 -96.5t-24 -117t24 -117t65.5 -96t96.5 -65t117 -24v-76v0z" />
    <glyph glyph-name="D" unicode="D" horiz-adv-x="463" 
d="M439 378q0 -77 -30 -145.5t-81 -120.5t-119.5 -82t-146.5 -30h-38v756h38q78 0 146.5 -30t119.5 -82t81 -120.5t30 -145.5zM364 378q0 57 -20.5 108.5t-56.5 92t-84.5 66.5t-103.5 33v-600q55 7 103.5 33t84.5 66.5t56.5 92t20.5 108.5z" />
    <glyph glyph-name="E" unicode="E" horiz-adv-x="482" 
d="M458 0q-73 0 -138 26.5t-116 72.5t-83 108t-39 133h-58v76h58q7 71 39.5 133t83 108t116 72.5t137.5 26.5v-75q-57 0 -108.5 -20.5t-92 -56.5t-66.5 -84.5t-33 -103.5h257v-76h-257q7 -56 33 -104t66.5 -83.5t92 -56t108.5 -20.5v-76v0z" />
    <glyph glyph-name="F" unicode="F" horiz-adv-x="321" 
d="M159 464v-464h-75v464h-60v75h60v217h147v-75h-72v-142h138v-75h-138z" />
    <glyph glyph-name="G" unicode="G" horiz-adv-x="464" 
d="M402 0q-78 0 -146.5 30t-120 81.5t-81.5 120t-30 146.5q0 77 30 146t81.5 120.5t120 81.5t146.5 30v-75q-62 0 -117 -24t-96.5 -65.5t-65.5 -96.5t-24 -117q0 -57 20.5 -108.5t56 -92t84 -66.5t104.5 -33v139h-102v76h178v-293h-38z" />
    <glyph glyph-name="H" unicode="H" horiz-adv-x="353" 
d="M254 0v464h-94v-464h-76v464h-60v75h60v217h76v-217h94v217h75v-756h-75z" />
    <glyph glyph-name="I" unicode="I" 
d="M24 0v756h75v-756h-75z" />
    <glyph glyph-name="J" unicode="J" horiz-adv-x="125" 
d="M101 38q0 -36 -14.5 -68.5t-39 -56.5t-57 -38.5t-68.5 -14.5v75q21 0 40 8.5t33 22t22 32.5t8 40v718h76v-718v0z" />
    <glyph glyph-name="K" unicode="K" horiz-adv-x="535" 
d="M511 161q0 -42 -9.5 -82.5t-26.5 -78.5h-86q47 73 47 161q0 57 -20 107.5t-55.5 90.5t-83 67t-101.5 35h-10v-461h-76v461q-23 -3 -44 -10l-22 72q17 5 33.5 8.5t32.5 5.5v219h76v-201l213 201h109l-246 -233q57 -17 106.5 -52t85.5 -82.5t56.5 -106t20.5 -121.5z" />
    <glyph glyph-name="L" unicode="L" horiz-adv-x="294" 
d="M24 0v756h76v-680h170v-76h-246z" />
    <glyph glyph-name="M" unicode="M" horiz-adv-x="684" 
d="M584 0v438q0 45 -16 85.5t-43.5 72.5t-65 53.5t-79.5 28.5v-678h-76v678q-42 -7 -79.5 -28t-65 -53t-43.5 -73t-16 -86v-438h-76v438q0 66 25.5 123.5t69 101t101 68.5t122.5 25q64 0 122 -25.5t101.5 -69t69 -101.5t25.5 -122v-438h-76z" />
    <glyph glyph-name="N" unicode="N" horiz-adv-x="460" 
d="M361 0v378q0 58 -20.5 110t-55.5 92t-83 66t-103 32v-678h-75v756h37q78 0 146.5 -30t119 -81t80 -120t29.5 -147v-378h-75z" />
    <glyph glyph-name="O" unicode="O" horiz-adv-x="804" 
d="M780 378q0 -78 -30 -146.5t-81.5 -120t-120.5 -81.5t-146 -30q-78 0 -146.5 30t-120 81.5t-81.5 120t-30 146.5q0 77 30 146t81.5 120.5t120 81.5t146.5 30q77 0 146 -30t120.5 -81.5t81.5 -120.5t30 -146zM704 378q0 62 -24 117t-65 96.5t-96 65.5t-117 24t-117 -24
t-96.5 -65.5t-65.5 -96.5t-24 -117t24 -117t65.5 -96t96.5 -65t117 -24q61 0 116 24t96.5 65.5t65.5 96t24 116.5z" />
    <glyph glyph-name="P" unicode="P" horiz-adv-x="431" 
d="M407 485q0 -50 -17.5 -95.5t-49 -81.5t-74 -59.5t-91.5 -30.5v-218h-75v218q-40 6 -76 23l32 68l22 -8t22 -6v462q5 0 9.5 -0.5t9.5 -0.5h19q55 0 103.5 -22t85.5 -59t58.5 -86.5t21.5 -103.5zM331 485q0 34 -11.5 65.5t-32.5 57t-49.5 43.5t-62.5 25v-381
q34 7 62.5 24.5t49.5 43t32.5 57t11.5 65.5z" />
    <glyph glyph-name="Q" unicode="Q" horiz-adv-x="804" 
d="M780 378q0 -88 -37.5 -164t-103.5 -130q2 -13 3.5 -26t1.5 -27v-15q-3 -34 -14 -67.5t-31 -62.5l-62 42q32 49 32 103q0 7 -1 8q-37 -19 -79 -29t-87 -10q-78 0 -146.5 30t-120 81.5t-81.5 120t-30 146.5q0 77 30 146t81.5 120.5t120 81.5t146.5 30q77 0 146 -30
t120.5 -81.5t81.5 -120.5t30 -146zM704 378q0 62 -24 117t-65 96.5t-96 65.5t-117 24t-117 -24t-96.5 -65.5t-65.5 -96.5t-24 -117t24 -117t65.5 -96t96.5 -65t117 -24q40 0 77 10t70 28q-24 48 -68.5 75.5t-98.5 27.5q-30 0 -53 -8l-21 73q36 11 75 11q73 0 133 -36.5
t94 -96.5q45 42 69.5 98t24.5 120z" />
    <glyph glyph-name="R" unicode="R" horiz-adv-x="535" 
d="M511 161q0 -42 -9.5 -82.5t-26.5 -78.5h-86q47 73 47 161q0 57 -20.5 109t-56.5 92.5t-85 66.5t-105 33v-462h-75v461q-12 -1 -24 -3.5t-24 -6.5l-22 72q17 5 34.5 9t35.5 5v219h37q29 0 55 -11.5t45.5 -31t31 -45.5t11.5 -55q0 -25 -8.5 -48t-23.5 -42q57 -17 106.5 -52
t85.5 -82.5t56.5 -106t20.5 -121.5zM169 558q14 9 21 22t9 28q0 25 -8.5 38.5t-21.5 22.5v-111z" />
    <glyph glyph-name="S" unicode="S" horiz-adv-x="392" 
d="M299 386l23.5 -34.5t22.5 -39.5t16.5 -44.5t6.5 -50.5q0 -41 -15.5 -79.5t-43.5 -69.5t-67.5 -49.5t-87.5 -18.5q-34 0 -67 10t-63 28l39 65q44 -28 93 -28q32 0 57.5 13t43 34t27 46.5t9.5 50.5q0 45 -27 84l-180 256q-26 37 -26 77q0 22 10 43.5t27.5 38.5t40 27
t46.5 10q40 0 73 -20l-39 -64q-7 5 -15.5 7t-16.5 2q-17 0 -33.5 -14t-16.5 -34q0 -7 3 -14.5t8 -14.5z" />
    <glyph glyph-name="T" unicode="T" horiz-adv-x="327" 
d="M201 681v-681h-75v681h-102v75h279v-75h-102z" />
    <glyph glyph-name="U" unicode="U" horiz-adv-x="396" 
d="M372 174q0 -35 -13.5 -66.5t-37 -55.5t-55.5 -38t-68 -14q-35 0 -66.5 13.5t-55.5 37t-38 55.5t-14 68v582h76v-582q0 -20 8 -37.5t21.5 -31t31 -21.5t37.5 -8q21 0 39 8t31.5 21.5t21 31t7.5 37.5v582h75v-582v0z" />
    <glyph glyph-name="V" unicode="V" horiz-adv-x="396" 
d="M372 313q0 -64 -24.5 -121t-66.5 -99.5t-98.5 -67.5t-120.5 -25h-38v756h76v-677q43 7 79 28t62 52.5t40.5 71t14.5 82.5v443h76v-443v0z" />
    <glyph glyph-name="W" unicode="W" horiz-adv-x="684" 
d="M660 318q0 -65 -25 -122.5t-68.5 -101t-101 -69t-123.5 -25.5q-65 0 -123 25t-101.5 68.5t-68.5 101.5t-25 123v438h76v-438q0 -45 16 -86t43.5 -73t64.5 -53t80 -28v678h76v-678q43 7 80 28t64.5 53t43.5 72.5t16 86.5v438h76v-438v0z" />
    <glyph glyph-name="X" unicode="X" horiz-adv-x="401" 
d="M299 0v24q0 21 -7.5 46t-21 50t-31.5 48t-39 40q-20 -17 -38 -40.5t-31.5 -48.5t-21 -50t-7.5 -45v-24h-75v23q0 30 9 61.5t24 62t35.5 58t43.5 49.5q-39 34 -61.5 74t-34.5 84t-15.5 90.5t-3.5 93.5v160h75v-157q0 -42 3 -84t13.5 -80.5t30.5 -72.5t54 -61
q34 26 54 60.5t30.5 73.5t13.5 80.5t3 83.5v157h76v-160q0 -47 -3.5 -93.5t-15.5 -90.5t-34.5 -84t-61.5 -74q24 -21 44.5 -48.5t35.5 -58.5t23.5 -62.5t8.5 -61.5v-23h-75z" />
    <glyph glyph-name="Y" unicode="Y" horiz-adv-x="431" 
d="M253 249v-249h-75v249l-154 507h79l112 -371l113 371h79z" />
    <glyph glyph-name="Z" unicode="Z" horiz-adv-x="398" 
d="M131 76h189v-76h-296l243 681h-187v75h294z" />
    <glyph glyph-name="bracketleft" unicode="[" horiz-adv-x="186" 
d="M24 -166v955h138v-75h-63v-804h63v-76h-138z" />
    <glyph glyph-name="backslash" unicode="\" horiz-adv-x="318" 
d="M102 753l192 -843h-77l-193 843h78z" />
    <glyph glyph-name="bracketright" unicode="]" horiz-adv-x="186" 
d="M24 -90h63v804h-63v75h138v-955h-138v76z" />
    <glyph glyph-name="asciicircum" unicode="^" horiz-adv-x="500" 
 />
    <glyph glyph-name="underscore" unicode="_" horiz-adv-x="425" 
d="M-6 -39v35h436v-35h-436z" />
    <glyph glyph-name="grave" unicode="`" horiz-adv-x="270" 
d="M24 664v91l222 -62v-29h-222z" />
    <glyph glyph-name="a" unicode="a" horiz-adv-x="424" 
d="M370 194v-194h-75v194h-196v-194h-75v189q0 72 22 141.5t65.5 130t108 109.5t150.5 81v-382h30v-75h-30zM295 533q-73 -43 -121.5 -112.5t-65.5 -151.5h187v264z" />
    <glyph glyph-name="b" unicode="b" horiz-adv-x="375" 
d="M351 230q0 -47 -18 -89t-49 -73.5t-73 -50.5t-89 -19h-39v382q-7 -2 -13.5 -4.5t-13.5 -5.5l-32 68q14 7 29 11.5t30 7.5v183h38q25 0 48 -10t40 -27t27 -40t10 -48q0 -22 -7 -41.5t-19 -35.5q30 -14 54 -35.5t41 -49t26.5 -59t9.5 -64.5zM276 230q0 27 -8.5 51t-24.5 44
t-37.5 34.5t-46.5 20.5v-302q25 7 46.5 21.5t37.5 35t24.5 44.5t8.5 51zM159 483q12 13 12 33q0 17 -12 31v-64z" />
    <glyph glyph-name="c" unicode="c" horiz-adv-x="368" 
d="M344 0q-66 0 -124 25.5t-101.5 69t-69 101.5t-25.5 124q0 65 25.5 123.5t69 102t101.5 69t124 25.5v-75q-50 0 -94.5 -19.5t-77.5 -53t-52.5 -78t-19.5 -94.5q0 -51 19 -95.5t52 -77.5t77.5 -52t95.5 -19v-76v0z" />
    <glyph glyph-name="d" unicode="d" horiz-adv-x="406" 
d="M382 320q0 -65 -25 -123t-68 -102t-101.5 -69.5t-125.5 -25.5h-38v640h38q65 0 123.5 -25.5t102 -69t69 -102t25.5 -123.5zM306 320q0 45 -16 86t-43.5 73.5t-65.5 54t-82 28.5v-484q45 7 83 29t65.5 54.5t43 73t15.5 85.5z" />
    <glyph glyph-name="e" unicode="e" horiz-adv-x="408" 
d="M384 0q-61 0 -115.5 21.5t-97 59.5t-70.5 89.5t-35 111.5h-42v76h42q7 59 35 110.5t71 89.5t97.5 60t114.5 22v-75q-45 0 -86 -16t-73 -43.5t-53.5 -65.5t-28.5 -82h206v-76h-206q7 -44 28 -81.5t53.5 -65t73 -43.5t86.5 -16v-76v0z" />
    <glyph glyph-name="f" unicode="f" horiz-adv-x="275" 
d="M143 378v-378h-75v378h-44v76h44v186h129v-76h-54v-110h108v-76h-108z" />
    <glyph glyph-name="g" unicode="g" horiz-adv-x="406" 
d="M344 0q-66 0 -124 25.5t-101.5 69t-69 101.5t-25.5 124q0 65 25.5 123.5t69 102t101.5 69t124 25.5v-75q-50 0 -94.5 -19.5t-78 -53t-53 -78t-19.5 -94.5q0 -46 15.5 -86.5t43.5 -72.5t66 -54t82 -29v102h-78v76h154v-256h-38z" />
    <glyph glyph-name="h" unicode="h" horiz-adv-x="308" 
d="M208 0v378h-65v-378h-76v378h-43v76h43v186h76v-186h65v186h76v-640h-76z" />
    <glyph glyph-name="i" unicode="i" 
d="M24 0v640h75v-640h-75z" />
    <glyph glyph-name="j" unicode="j" horiz-adv-x="203" 
d="M179 153q0 -31 -12.5 -58.5t-33.5 -48.5t-49 -33.5t-60 -12.5v74q32 0 55.5 23.5t23.5 55.5v487h76v-487v0z" />
    <glyph glyph-name="k" unicode="k" horiz-adv-x="460" 
d="M436 140q0 -35 -7.5 -71.5t-24.5 -68.5h-87q20 31 31.5 66.5t11.5 73.5q0 44 -16 85t-44 73.5t-66.5 55t-84.5 29.5v-383h-75v381l-29 -7l-21 73q11 3 22.5 5.5t27.5 5.5v182h75v-159l161 159h110l-201 -197q48 -16 87.5 -46t68.5 -70.5t45 -88t16 -98.5z" />
    <glyph glyph-name="l" unicode="l" horiz-adv-x="258" 
d="M24 0v640h75v-564h135v-76h-210z" />
    <glyph glyph-name="m" unicode="m" horiz-adv-x="589" 
d="M489 0v370q0 35 -12 66.5t-33 57t-49.5 43t-62.5 24.5v-561h-75v561q-33 -7 -61.5 -24.5t-50 -42.5t-33.5 -57t-12 -67v-370h-76v370q0 55 21.5 104t58.5 86t86 58.5t104 21.5t104.5 -21.5t86.5 -58.5t58.5 -86t21.5 -104v-370h-76z" />
    <glyph glyph-name="n" unicode="n" horiz-adv-x="403" 
d="M303 0v320q0 44 -15.5 84.5t-42.5 73t-64.5 54.5t-81.5 29v-561h-75v640h38q65 0 122.5 -25.5t101 -69t68.5 -102t25 -123.5v-320h-76z" />
    <glyph glyph-name="o" unicode="o" horiz-adv-x="688" 
d="M664 320q0 -66 -25.5 -124t-69 -101.5t-102 -69t-123.5 -25.5q-66 0 -124 25t-101.5 68.5t-69 102t-25.5 124.5q0 65 25.5 123.5t69 102t101.5 69t124 25.5q64 0 122 -25.5t102 -69t70 -101.5t26 -124zM589 320q0 50 -19.5 94.5t-53 78t-78 53t-94.5 19.5t-94.5 -19.5
t-77.5 -53t-52.5 -78t-19.5 -94.5t19.5 -94.5t52.5 -77.5t77.5 -52.5t94.5 -19.5t94.5 19.5t78 52.5t53 77.5t19.5 94.5z" />
    <glyph glyph-name="p" unicode="p" horiz-adv-x="375" 
d="M351 409q0 -42 -14.5 -80t-40 -68.5t-61 -51t-76.5 -27.5v-182h-76v182q-12 0 -29.5 6t-29.5 12l32 68q7 -3 13.5 -5l13.5 -4v381h39q47 0 88.5 -18.5t73 -50.5t49.5 -74t18 -88zM276 409q0 27 -8.5 51t-24.5 44t-37.5 34.5t-46.5 20.5v-300q25 6 46.5 20.5t37.5 34.5
t24.5 44t8.5 51z" />
    <glyph glyph-name="q" unicode="q" horiz-adv-x="688" 
d="M664 320q0 -66 -26.5 -127.5t-89.5 -118.5q4 -17 4 -42q0 -32 -10 -64t-28 -59l-63 41q23 35 25 79q-61 -29 -132 -29q-66 0 -124 25.5t-101.5 69t-69 101.5t-25.5 124q0 67 25.5 125.5t69.5 101.5t102 68t123 25t123.5 -25.5t102 -69t69 -102t25.5 -123.5zM589 320
q0 50 -19.5 94.5t-53 78t-78 53t-94.5 19.5t-94.5 -19t-77.5 -52.5t-52.5 -78t-19.5 -95.5q0 -50 19.5 -94.5t52.5 -77.5t77.5 -52.5t94.5 -19.5q31 0 60 7.5t54 20.5q-19 35 -54.5 55.5t-77.5 20.5q-10 0 -20.5 -1t-19.5 -5l-22 72q31 9 64 9q58 0 109 -28.5t82 -77.5
q32 33 51 77.5t19 93.5z" />
    <glyph glyph-name="r" unicode="r" horiz-adv-x="460" 
d="M436 140q0 -38 -8 -73t-22 -67h-86q20 31 30 66.5t10 73.5q0 47 -17 88t-45.5 73t-66 52.5t-79.5 27.5v-381h-76v381q-7 -1 -15 -3l-16 -4l-21 72l12.5 4t13.5 3l26 4v183h4q35 0 65 -4.5t58 -32.5q18 -19 27 -42t9 -46q0 -40 -23 -72q46 -16 86 -45t70 -68t47 -87.5
t17 -102.5zM152 483q7 7 9.5 15.5t2.5 16.5t-2.5 16.5t-9.5 15.5v-64z" />
    <glyph glyph-name="s" unicode="s" horiz-adv-x="344" 
d="M285 293q17 -24 26 -53t9 -57q0 -35 -13 -68.5t-37 -59.5t-58 -42.5t-76 -16.5q-59 0 -112 32l39 64q16 -11 36 -16t37 -5q25 0 45 10t34 26t21.5 36t7.5 40q0 34 -21 66l-150 217q-22 31 -22 66q0 21 9 40t24 34t35 24t43 9q32 0 62 -18l-40 -64q-5 4 -11 5.5t-11 1.5
q-12 0 -23 -7.5t-11 -21.5q0 -4 1.5 -12.5t9.5 -19.5l146 -210v0z" />
    <glyph glyph-name="t" unicode="t" horiz-adv-x="279" 
d="M177 564v-564h-75v564h-78v76h231v-76h-78z" />
    <glyph glyph-name="u" unicode="u" horiz-adv-x="350" 
d="M326 151q0 -30 -12 -57.5t-32 -48t-48 -33t-59 -12.5t-58.5 12t-48 32.5t-32.5 48t-12 58.5v489h76v-489q0 -31 22 -53t53 -22t53 22t22 53v489h76v-489v0z" />
    <glyph glyph-name="v" unicode="v" horiz-adv-x="349" 
d="M325 266q0 -54 -20.5 -102.5t-56 -84.5t-83.5 -57.5t-103 -21.5h-38v640h75v-561q33 7 60.5 24.5t47.5 42.5t31.5 56t11.5 64v374h75v-374v0z" />
    <glyph glyph-name="w" unicode="w" horiz-adv-x="589" 
d="M565 270q0 -55 -21.5 -104t-58.5 -86t-86.5 -58.5t-104.5 -21.5q-56 0 -105 21.5t-85.5 58t-58 85.5t-21.5 105v370h76v-370q0 -35 12 -66.5t33 -57t49.5 -43t62.5 -24.5v561h75v-561q34 7 62.5 24.5t49.5 43t33 57t12 66.5v370h76v-370v0z" />
    <glyph glyph-name="x" unicode="x" horiz-adv-x="354" 
d="M330 474q0 -75 -19 -143.5t-73 -119.5q20 -19 36.5 -42.5t28.5 -49t18.5 -51t6.5 -48.5v-20h-75v20q0 19 -8.5 41.5t-20.5 43t-24.5 37t-21.5 22.5q-9 -6 -22 -22.5t-25 -37t-20.5 -42t-8.5 -39.5v-23h-75v20q0 22 6.5 47.5t18.5 51t28.5 49t36.5 43.5q-29 27 -47.5 58.5
t-28.5 66.5t-13.5 71.5t-3.5 74.5v158h76v-138q0 -35 2.5 -69t10.5 -65.5t23.5 -59.5t41.5 -50q26 22 41 50t23 60t10.5 66t2.5 68v138h75v-166z" />
    <glyph glyph-name="y" unicode="y" horiz-adv-x="386" 
d="M230 206v-206h-75v206l-131 434h78l91 -298l90 298h79z" />
    <glyph glyph-name="z" unicode="z" horiz-adv-x="357" 
d="M132 76h148v-76h-256l202 565h-148v75h255z" />
    <glyph glyph-name="braceleft" unicode="{" horiz-adv-x="332" 
d="M205 382l-87 -83l87 -86v-226q0 -21 8 -40t22 -32.5t33 -22t40 -8.5v-75q-36 0 -68.5 14.5t-57 38.5t-39 56.5t-14.5 68.5v206l-105 108l105 105v171q0 36 14.5 68.5t39 56.5t57 38.5t68.5 14.5v-75q-21 0 -40 -8.5t-33 -22t-22 -32.5t-8 -40v-195z" />
    <glyph glyph-name="braceright" unicode="}" horiz-adv-x="332" 
d="M127 577q0 21 -8 40t-22 32.5t-33 22t-40 8.5v75q36 0 68.5 -14.5t57 -38.5t39 -56.5t14.5 -68.5v-171l105 -105l-105 -108v-206q0 -36 -14.5 -68.5t-39 -56.5t-57 -38.5t-68.5 -14.5v75q21 0 40 8.5t33 22t22 32.5t8 40v226l87 86l-87 83v195z" />
    <glyph glyph-name="asciitilde" unicode="~" horiz-adv-x="500" 
 />
    <glyph glyph-name="cent" unicode="&#xa2;" horiz-adv-x="318" 
d="M294 122q-29 0 -57 6v-129h-76v158q-61 35 -99 97t-38 137q0 37 10 72t28 65.5t43.5 55t55.5 41.5v131h76v-102q28 6 57 6v-75q-40 0 -75 -15.5t-61.5 -42t-42 -61.5t-15.5 -75t15.5 -75t42 -61.5t61.5 -42t75 -15.5v-75v0z" />
    <glyph glyph-name="sterling" unicode="&#xa3;" horiz-adv-x="382" 
d="M288 620q-11 27 -36 43.5t-54 16.5q-20 0 -38 -7.5t-31.5 -21t-21.5 -31t-8 -38.5v-43h183v-76h-183v-29h183v-75h-183v-284h244v-75h-319v582q0 35 14 66.5t38 55.5t55.5 38t66.5 14q52 0 95.5 -29t64.5 -78z" />
    <glyph glyph-name="section" unicode="&#xa7;" horiz-adv-x="1238" 
d="M1214 678v-278h-81v196h-48v82h129zM936 334q-8 0 -8 -8t8 -8h164v-40h-164q-8 0 -8 -8q0 -9 8 -9h164v-39h-164q-20 0 -33.5 14t-13.5 34q0 16 9 27q-9 12 -9 29q0 20 13.5 33.5t33.5 13.5h164v-39h-164zM350 318v-40h-172v-56h-39v104q0 20 13.5 33.5t33.5 13.5h164
v-39h-164q-8 0 -8 -8v-8h172zM387 373h223v-52q0 -23 -15.5 -40.5t-38.5 -19.5l36 -39h-53l-36 39h-57v39h104q9 0 15 6t6 15v13h-144v-112h-40v151zM691 334q-8 0 -8 -8t8 -8h164v-40h-164q-8 0 -8 -8q0 -9 8 -9h164v-39h-164q-20 0 -34 14t-14 34q0 8 2.5 15t6.5 12
q-9 14 -9 29q0 20 14 33.5t34 13.5h164v-39h-164zM972 196v-40h-111v-73h47v-40h-86v113h-69v40h219zM1138 83q20 0 31 17h-169v19q0 32 22 54.5t54 22.5h138v-40h-138q-20 0 -31 -17h169v-20q0 -31 -22 -53.5t-54 -22.5h-138v40h138zM236 139v-39h-172v-57h-40v105
q0 20 14 34t34 14h164v-40h-164q-8 0 -8 -8v-9h172zM720 43h-58q-7 26 -19.5 46.5t-35.5 38.5q-14 10 -29.5 17t-32.5 9v-111h-40v152h22q28 0 54.5 -9.5t49.5 -26.5q16 -12 28.5 -27t21.5 -32v96h39v-153zM470 195v-70q0 -34 -24 -58t-58 -24h-129v70q0 34 24 58t58 24h129
zM341 156q-17 0 -29.5 -12.5t-12.5 -30.5v-30h89q17 0 29.5 12.5t12.5 29.5v31h-89zM154 678v-278h-82v196h-48v82h130zM1029 678v-128q0 -31 -12 -58.5t-32.5 -47.5t-47.5 -32t-58 -12h-231v129q0 31 12 58t32 47t47.5 32t58.5 12h231zM798 596q-29 0 -49 -19.5t-20 -47.5
v-48h150q28 0 48 20t20 49v46h-149zM591 678v-128q0 -31 -12 -58.5t-32 -47.5t-47 -32t-58 -12h-232v129q0 31 12 58t32.5 47t47.5 32t58 12h231zM360 596q-28 0 -48 -19.5t-20 -47.5v-48h150q28 0 47.5 20t19.5 49v46h-149z" />
    <glyph glyph-name="paragraph" unicode="&#xb6;" horiz-adv-x="573" 
d="M24 378q0 77 30 145.5t81 120.5t119.5 82t146.5 30h148v-839h-75v763h-35v-763h-75v85q-71 7 -133 39.5t-108 83t-72.5 116t-26.5 137.5z" />
    <glyph glyph-name="germandbls" unicode="&#xdf;" horiz-adv-x="458" 
d="M434 229q0 -48 -18.5 -90t-50 -73.5t-74 -50t-90.5 -18.5v74q32 0 61 12.5t50.5 34t34 50.5t12.5 61t-12.5 60.5t-34.5 50.5t-50.5 34.5t-60.5 12.5v75q25 0 39.5 17t14.5 38q0 23 -17.5 38t-36.5 15q-20 0 -36.5 -15t-16.5 -39v-516h-76v387h-48v75h48v54
q0 26 10.5 49.5t28 41t41 28t49.5 10.5q29 0 53 -11.5t41 -29.5t26.5 -41.5t9.5 -47.5q0 -38 -27 -77q60 -29 95 -85.5t35 -123.5z" />
    <glyph glyph-name="registered" unicode="&#xae;" horiz-adv-x="390" 
d="M24 584q0 36 13.5 67t36.5 54t54 36.5t66 13.5q36 0 67 -13.5t54.5 -36.5t37 -54t13.5 -67q0 -35 -13.5 -66t-37 -54t-54.5 -36.5t-67 -13.5q-35 0 -66 13.5t-54 36.5t-36.5 54t-13.5 66zM50 584q0 -30 11 -56.5t30.5 -46t46 -30.5t56.5 -11t56.5 11t46 30.5t31 46
t11.5 56.5t-11.5 56.5t-31 46t-46 31t-56.5 11.5t-56.5 -11.5t-46 -31t-30.5 -46t-11 -56.5zM276 521q0 -26 -11 -50h-27q14 23 14 50q0 37 -24 63.5t-60 31.5v-145h-23v145l-15 -3l-7 22q6 2 11.5 3l10.5 2v69h12q18 0 31.5 -13.5t13.5 -31.5q0 -16 -10 -29q36 -11 60 -42
t24 -72zM168 647q8 4 10 15q0 8 -2.5 12.5t-7.5 7.5v-35z" />
    <glyph glyph-name="copyright" unicode="&#xa9;" horiz-adv-x="780" 
d="M756 377q0 -75 -29 -142t-79 -117t-116.5 -79t-141.5 -29t-141.5 29t-116.5 79t-79 117t-29 142t29 142t79 117t116.5 79.5t141.5 29.5t141.5 -29.5t116.5 -79.5t79 -117t29 -142zM704 377q0 65 -25 122.5t-67.5 100.5t-100 68t-121.5 25q-65 0 -122.5 -25t-100.5 -68
t-68 -100.5t-25 -122.5t25 -122t68 -100t100.5 -68t122.5 -25q64 0 121 25t100 68t68 100.5t25 121.5zM525 141q-30 -17 -64 -26.5t-70 -9.5q-56 0 -105.5 21.5t-86.5 58t-58.5 86t-21.5 105.5q0 55 21.5 104.5t58.5 87t86.5 59t105.5 21.5q36 0 70 -10t64 -27v-77
q-28 23 -62 36.5t-72 13.5q-42 0 -80 -16.5t-66 -45t-44.5 -66t-16.5 -80.5q0 -42 16.5 -80t44.5 -66t66 -44.5t80 -16.5q38 0 72 13t62 36v-77z" />
    <glyph glyph-name="acute" unicode="&#xb4;" horiz-adv-x="270" 
d="M24 664v29l222 62v-91h-222z" />
    <glyph glyph-name="dieresis" unicode="&#xa8;" horiz-adv-x="204" 
d="M24 664v68h66v-68h-66zM114 664v68h66v-68h-66z" />
    <glyph glyph-name="AE" unicode="&#xc6;" horiz-adv-x="818" 
d="M458 340q7 -56 33 -104t66.5 -83.5t92 -56t108.5 -20.5v-76q-93 0 -171.5 41.5t-130.5 110.5v-152h-76v340h-231q-20 -66 -20 -137v-203h-75v203q0 69 17 137h-47v76h71q22 52 53.5 101t75 91.5t101 78.5t131.5 62v-145q52 69 130.5 110.5t171.5 41.5v-76
q-57 0 -108.5 -20.5t-92 -56t-66.5 -84t-33 -103.5h336v-76h-336zM380 632q-68 -39 -115.5 -91.5t-86.5 -124.5h202v216z" />
    <glyph glyph-name="Oslash" unicode="&#xd8;" horiz-adv-x="804" 
d="M780 378q0 -78 -30 -146.5t-81.5 -120t-120.5 -81.5t-146 -30q-69 0 -129.5 23t-109.5 63l-31 -31l-54 53l31 31q-40 49 -62.5 110.5t-22.5 128.5q0 77 30 146t81.5 120.5t120 81.5t146.5 30q69 0 129.5 -22.5t109.5 -62.5l31 31l53 -54l-31 -31q40 -49 63 -109.5
t23 -129.5zM704 378q0 54 -17 100.5t-47 84.5l-424 -423q39 -30 86.5 -47t99.5 -17q61 0 116 24t96.5 65.5t65.5 96t24 116.5zM587 617q-38 30 -85.5 47t-99.5 17q-62 0 -117 -24t-96.5 -65.5t-65.5 -96.5t-24 -117q0 -52 17 -99.5t47 -85.5z" />
    <glyph glyph-name="plusminus" unicode="&#xb1;" horiz-adv-x="426" 
d="M250 341v-152h-75v152h-151v75h151v151h75v-151h152v-75h-152zM24 1v75h378v-75h-378z" />
    <glyph glyph-name="yen" unicode="&#xa5;" horiz-adv-x="476" 
d="M309 359l-33 -110v-249h-76v249l-33 110h-143v75h120l-9 29h-111v76h88l-65 217h79l112 -371l112 371h79l-66 -217h89v-76h-111l-9 -29h120v-75h-143z" />
    <glyph glyph-name="mu" unicode="&#xb5;" horiz-adv-x="350" 
d="M24 640h76v-492q0 -30 22.5 -51t52.5 -21q31 0 53 22t22 53v489h76v-489q0 -30 -12 -57.5t-32 -48t-48 -33t-59 -12.5q-41 0 -75 20v-76h-76v696z" />
    <glyph glyph-name="ordfeminine" unicode="&#xaa;" horiz-adv-x="355" 
d="M209 -200h-47h47zM289 408v-110h-75v110h-114v-110h-76v118q0 54 15.5 106t48 97t82.5 80.5t119 56.5v-272h42v-76h-42zM214 636q-38 -26 -66 -66t-39 -86h105v152z" />
    <glyph glyph-name="ordmasculine" unicode="&#xba;" horiz-adv-x="518" 
d="M494 517q0 -48 -18.5 -91t-51 -75t-75 -50.5t-90.5 -18.5t-91 18.5t-75 50.5t-50.5 75t-18.5 91t18.5 91t51 75.5t75 51t90.5 18.5t91 -18.5t75 -51t50.5 -75.5t18.5 -91zM418 517q0 33 -12.5 62t-34.5 50.5t-50.5 34.5t-61.5 13t-62 -13t-51 -34.5t-34.5 -50.5
t-12.5 -62q0 -32 12.5 -61t34.5 -51t51 -34.5t62 -12.5q32 0 61 12.5t50.5 34.5t34.5 51t13 61z" />
    <glyph glyph-name="ae" unicode="&#xe6;" horiz-adv-x="651" 
d="M627 0q-67 0 -124.5 25.5t-102.5 68.5l-8 9q-3 2 -5 4.5t-4 5.5v-113h-76v282h-178q-8 -27 -12.5 -57t-4.5 -56v-169h-75v169q0 26 2.5 56t10.5 57h-26v76h52q18 42 44.5 81t63 73.5t85.5 64.5t114 54v-104q45 52 108 82.5t136 30.5v-75q-45 0 -85.5 -16t-73 -43.5
t-54.5 -65.5t-29 -82h206v-76h-206q7 -44 28 -81.5t53 -65t73 -43.5t88 -16v-76zM307 513q-46 -28 -83.5 -67.5t-63.5 -87.5h147v155z" />
    <glyph glyph-name="oslash" unicode="&#xf8;" horiz-adv-x="688" 
d="M664 320q0 -66 -25.5 -124t-69 -101.5t-102 -69t-123.5 -25.5q-55 0 -105.5 18.5t-92.5 50.5l-43 -43l-53 53l43 43q-32 42 -50.5 91.5t-18.5 106.5q0 65 25.5 123.5t69 102t101.5 69t124 25.5q57 0 106.5 -18.5t91.5 -50.5l43 43l53 -53l-43 -43q32 -42 50.5 -91.5
t18.5 -106.5zM589 320q0 81 -48 144l-341 -341q31 -22 67.5 -34.5t76.5 -12.5q50 0 94.5 19.5t78 52.5t53 77.5t19.5 94.5zM488 517q-62 48 -144 48q-50 0 -94.5 -19.5t-77.5 -53t-52.5 -78t-19.5 -94.5q0 -40 12.5 -76.5t34.5 -67.5z" />
    <glyph glyph-name="questiondown" unicode="&#xbf;" horiz-adv-x="335" 
d="M58 86q28 40 50.5 69l39.5 52t29 44t19 44.5t10.5 53.5t3.5 72h76q0 -66 -6.5 -107.5t-22 -75.5t-41.5 -67.5l-65 -84.5q-18 -23 -28 -37t-15 -24.5t-6.5 -20t-1.5 -23.5q0 -20 7.5 -39t21 -34t32.5 -24t42 -9q18 0 35.5 5.5t32.5 14.5l40 -65q-25 -13 -53 -22t-57 -9
q-39 0 -71.5 16t-56 41.5t-36.5 58.5t-13 67q0 55 34 104zM284 555v-81h-75v81h75z" />
    <glyph glyph-name="exclamdown" unicode="&#xa1;" 
d="M99 430v-632h-75v632h75zM99 555v-81h-75v81h75z" />
    <glyph glyph-name="logicalnot" unicode="&#xac;" horiz-adv-x="426" 
d="M402 239h-75v102h-303v75h378v-177z" />
    <glyph glyph-name="florin" unicode="&#x192;" horiz-adv-x="818" 
d="M464 424v-14q3 1 7 1h8q22 0 42.5 -9t23.5 -31q11 5 25 7t26 2q32 0 57 -15.5t25 -47.5q0 -16 -10 -29q-3 -5 -8 -5q-11 0 -11 9q0 2 3 7q6 7 6 18q0 19 -15 31t-37 12q-24 0 -42.5 -6.5t-32 -16t-20.5 -20.5t-7 -20q0 -10 7.5 -20t33.5 -10q15 0 30 5q1 1 3 1
q10 0 10 -11q-2 -17 -10.5 -31t-22.5 -25q-14 -10 -30 -16t-36 -6q-23 0 -44.5 9t-35.5 26q-15 -17 -36 -26t-44 -9q-20 0 -36.5 6t-30.5 16q-28 22 -33 56q0 11 10 11h1q1 0 1 -0.5t1 -0.5q17 -5 30 -5q28 0 35.5 10t7.5 20q0 9 -7.5 19.5t-21 20.5t-33 16.5t-43.5 6.5
q-21 0 -36 -12t-15 -31q0 -9 7 -18q1 -2 1.5 -3.5t0.5 -3.5q0 -9 -10 -9q-5 0 -9 5q-9 14 -9 29q0 32 24.5 47.5t56.5 15.5q13 0 27 -2t24 -7q1 11 8 18.5t16.5 12.5t20.5 7t20 2h8t9 -1q-1 4 -1 8v9q0 25 5 43q5 17 12 17q6 0 11 -17q2 -5 3 -11t1 -13l-18 -22h19
q0 -7 -0.5 -14t-1.5 -13q17 -12 17 -30q0 -17 -9 -25.5t-20 -13.5t-20.5 -11t-9.5 -14q0 -9 7 -15.5t17 -10t21.5 -5.5t21.5 -2t21.5 2t21.5 5.5t16.5 10t6.5 15.5q0 8 -8.5 14t-20.5 11q-11 5 -20 13t-9 26t17 30q-2 7 -2 14.5v15.5q0 28 4 43q5 17 12 17t12 -17
q1 -5 2 -11t2 -14l-18 -21h18zM481 399q-22 0 -38 -11q-6 -5 -10 -10t-4 -11q0 -13 14 -22q17 -10 38 -10t38 10q14 9 14 22q0 10 -14 21q-16 11 -38 11zM337 399q-24 0 -38 -11q-14 -9 -14 -21q0 -14 14 -22q15 -10 38 -10q22 0 37 10q14 8 14 22q0 12 -14 21
q-14 11 -37 11zM476 271q-14 -12 -33 -16t-34 -4q-16 0 -35 4t-33 16q-14 -12 -32 -17.5t-37 -5.5h-10t-10 1q10 -23 31.5 -34t45.5 -11q20 0 40 9t31 28q4 4 9 4q7 0 8 -4q11 -19 31 -28t41 -9q23 0 45 11t31 34q-5 -1 -10 -1h-10q-18 0 -36 5.5t-33 17.5zM334 546
q-52 -11 -86 -36t-34 -71q0 -8 1 -14.5t1 -15.5q0 -10 -10 -10q-8 0 -9 9q-3 15 -3 31q0 34 13 64.5t36 54.5q-19 11 -32.5 28.5t-18.5 40.5q0 9 9 9q3 0 6 -1.5t3 -6.5q8 -32 36 -49t59 -17q29 0 55 15.5t35 44.5q3 6 10 6q9 0 9 -6q10 -29 36.5 -44.5t55.5 -15.5
q30 0 58 17t35 49q1 5 4 6.5t6 1.5t6 -2.5t3 -9.5q-4 -20 -16.5 -36t-29.5 -27q24 -25 37.5 -56t13.5 -66q0 -16 -3 -31q-1 -9 -9 -9q-10 0 -10 12q1 8 2 14.5t1 13.5q0 49 -30 72.5t-74 31.5q-28 5 -54 16.5t-41 36.5q-12 -20 -30.5 -32.5t-40.5 -17.5zM707 112
q-24 -26 -57.5 -40.5t-70.5 -14.5q-38 -21 -84 -21h-11q-36 -17 -75 -17q-41 0 -75 17h-11q-46 0 -85 21q-36 0 -70 14.5t-57 40.5q-35 25 -61 60.5t-26 81.5q0 34 15.5 62.5t38.5 51.5q-25 47 -25 97q0 55 28.5 103t77.5 83q48 35 112.5 55.5t137.5 20.5t137.5 -20.5
t112.5 -55.5q49 -35 77.5 -83t28.5 -103q0 -26 -7 -50t-18 -47q23 -23 38.5 -51.5t15.5 -62.5q0 -46 -26 -81.5t-61 -60.5zM612 81q23 4 43.5 15.5t36 28t24.5 38t9 46.5q0 41 -25 74q-3 3 -3 6q0 10 10 10q5 0 8 -4q29 -38 29 -86q0 -24 -6 -43q16 18 26 40t10 48
q0 31 -15 57.5t-38 47.5q-3 1 -3 7q0 3 1 5q26 44 26 94t-26 94t-72 77t-107 53t-131 20t-131.5 -20t-107.5 -53q-45 -33 -71.5 -77t-26.5 -94q0 -25 7 -48.5t19 -45.5q1 -1 1 -4q0 -6 -2 -8q-23 -21 -38.5 -47.5t-15.5 -57.5q0 -26 10 -48t27 -40q-3 10 -5 20.5t-2 22.5
q0 48 29 86q4 4 9 4q9 0 9 -10q0 -4 -2 -6q-25 -31 -25 -74q0 -25 9 -46.5t24.5 -38t36 -28t43.5 -15.5q-22 20 -35.5 47t-13.5 59q0 51 33 90q3 4 8 4q9 0 9 -9q0 -5 -2 -7q-28 -34 -28 -78q0 -26 10 -48.5t27 -39.5t39.5 -28t46.5 -14q-26 20 -41.5 49t-15.5 64
q0 11 10 11t10 -11q0 -29 12.5 -53.5t33 -42t46.5 -27t54 -9.5t54 9.5t46.5 27t33 42t12.5 53.5q0 11 10 11q9 0 9 -11q0 -35 -15.5 -64t-40.5 -49q24 3 46.5 14t39.5 28t27 39.5t10 48.5q0 44 -28 78q-3 3 -3 7q0 9 10 9q4 0 8 -4q32 -38 32 -90q0 -32 -13 -59t-35 -47z
" />
    <glyph glyph-name="guillemotleft" unicode="&#xab;" horiz-adv-x="309" 
d="M24 389l151 149v-89l-63 -62l63 -64v-90zM134 389l151 149v-89l-63 -62l63 -64v-90z" />
    <glyph glyph-name="guillemotright" unicode="&#xbb;" horiz-adv-x="309" 
d="M24 323l63 64l-63 62v89l151 -149l-151 -156v90zM134 323l63 64l-63 62v89l151 -149l-151 -156v90z" />
    <glyph glyph-name="ellipsis" unicode="&#x2026;" horiz-adv-x="323" 
d="M24 -1v81h75v-81h-75zM124 -1v81h75v-81h-75zM224 -1v81h75v-81h-75z" />
    <glyph glyph-name="OE" unicode="&#x152;" horiz-adv-x="919" 
d="M895 0q-70 0 -133 24.5t-114 67.5q-49 -43 -112 -67.5t-135 -24.5q-77 0 -145.5 30t-120 81.5t-81.5 120t-30 146.5t30 146.5t81.5 120t120 81.5t145.5 30q72 0 135 -24.5t112 -67.5q51 43 114 67.5t133 24.5v-75q-57 0 -108.5 -20.5t-92 -56.5t-66.5 -84.5t-33 -103.5
h257v-76h-257q7 -56 33 -104t66.5 -83.5t92 -56t108.5 -20.5v-76zM596 147q-31 42 -51.5 90.5t-25.5 102.5h-58v76h58q5 54 25.5 103.5t51.5 89.5q-40 34 -89 53t-106 19q-62 0 -117 -24t-96 -65.5t-65 -96.5t-24 -117t24 -116.5t65.5 -96t96 -65.5t116.5 -24q57 0 106 19
t89 52z" />
    <glyph glyph-name="oe" unicode="&#x153;" horiz-adv-x="928" 
d="M904 0q-91 0 -163 45.5t-117 119.5q-42 -73 -115.5 -119t-164.5 -46q-66 0 -124 25t-101.5 68.5t-69 102t-25.5 124.5q0 65 25.5 123.5t69 102t101.5 69t124 25.5q45 0 86.5 -12.5t78 -34t66 -52t49.5 -66.5q20 37 50 67.5t66 52t78 33.5t86 12v-75q-45 0 -85.5 -16
t-73 -43.5t-54.5 -65.5t-29 -82h206v-76h-206q7 -44 29 -82t54 -65.5t72.5 -43t86.5 -15.5v-76zM544 282v76h42q-7 43 -28.5 81t-53.5 66t-73 44t-87 16q-50 0 -94.5 -19.5t-77.5 -53t-52.5 -78t-19.5 -94.5t19.5 -94.5t52.5 -77.5t77.5 -52.5t94.5 -19.5q45 0 86 15.5
t73.5 43.5t54 65.5t28.5 81.5h-42z" />
    <glyph glyph-name="endash" unicode="&#x2013;" horiz-adv-x="426" 
d="M24 341v75h378v-75h-378z" />
    <glyph glyph-name="emdash" unicode="&#x2014;" horiz-adv-x="804" 
d="M24 341v75h756v-75h-756z" />
    <glyph glyph-name="quotedblleft" unicode="&#x201c;" horiz-adv-x="298" 
d="M88 623l-64 40l86 134l64 -40zM188 623l-64 40l86 134l64 -40z" />
    <glyph glyph-name="quotedblright" unicode="&#x201d;" horiz-adv-x="298" 
d="M88 623l-64 40l86 134l64 -40zM188 623l-64 40l86 134l64 -40z" />
    <glyph glyph-name="quoteleft" unicode="&#x2018;" horiz-adv-x="198" 
d="M88 623l-64 40l86 134l64 -40z" />
    <glyph glyph-name="quoteright" unicode="&#x2019;" horiz-adv-x="198" 
d="M88 623l-64 40l86 134l64 -40z" />
    <glyph glyph-name="currency" unicode="&#xa4;" horiz-adv-x="709" 
d="M656 611q-84 69 -192 69q-51 0 -97.5 -16.5t-85 -46t-67 -69.5t-41.5 -88h423l-30 -76h-404v-29h392l-30 -75h-346q16 -44 44 -81.5t65.5 -65t82 -43t94.5 -15.5q60 0 121 26v-81q-60 -20 -121 -20q-65 0 -124 21t-107.5 58.5t-83 88.5t-50.5 112h-75l30 75h32v29h-60
l30 76h39q14 64 49 118t84 93.5t109.5 62t126.5 22.5q60 0 116.5 -18.5t104.5 -53.5z" />
    <glyph glyph-name="guilsinglleft" unicode="&#x2039;" horiz-adv-x="199" 
d="M24 389l151 149v-89l-63 -62l63 -64v-90z" />
    <glyph glyph-name="guilsinglright" unicode="&#x203a;" horiz-adv-x="199" 
d="M24 323l63 64l-63 62v89l151 -149l-151 -156v90z" />
    <glyph glyph-name="periodcentered" unicode="&#xb7;" 
d="M24 269v81h75v-81h-75z" />
    <glyph glyph-name="quotesinglbase" unicode="&#x201a;" horiz-adv-x="198" 
d="M88 -87l-64 40l86 134l64 -40z" />
    <glyph glyph-name="quotedblbase" unicode="&#x201e;" horiz-adv-x="308" 
d="M88 -87l-64 40l86 134l64 -40zM198 -87l-64 40l86 134l64 -40z" />
    <glyph glyph-name="perthousand" unicode="&#x2030;" horiz-adv-x="992" 
d="M391 576q0 -38 -14.5 -71.5t-39.5 -58.5t-58.5 -39.5t-70.5 -14.5q-38 0 -71.5 14.5t-58.5 39.5t-39.5 58.5t-14.5 71.5t14.5 71.5t39.5 58.5t58.5 39.5t71.5 14.5q37 0 70.5 -14.5t58.5 -39.5t39.5 -58.5t14.5 -71.5zM320 576q0 23 -9 43.5t-24 36t-35.5 24.5t-43.5 9
q-24 0 -44.5 -9t-36 -24.5t-24.5 -36t-9 -43.5t9 -43.5t24.5 -36t36 -24.5t44.5 -9q22 0 42.5 9t36 24.5t24.5 36t9 43.5zM245 0h-77l380 756h78zM775 183q0 -38 -14.5 -71.5t-39.5 -58.5t-58.5 -39.5t-70.5 -14.5q-38 0 -71.5 14.5t-58.5 39.5t-39.5 58.5t-14.5 71.5
t14.5 71.5t39.5 58.5t58.5 39.5t71.5 14.5q37 0 70.5 -14.5t58.5 -39.5t39.5 -58.5t14.5 -71.5zM704 183q0 23 -9 43.5t-24 36t-35.5 24.5t-43.5 9q-24 0 -44.5 -9t-36 -24.5t-24.5 -36t-9 -43.5t9 -43.5t24.5 -36t36 -24.5t44.5 -9q22 0 42.5 9t36 24.5t24.5 36t9 43.5z
M968 571q0 -38 -14.5 -71.5t-39.5 -58.5t-58.5 -39.5t-70.5 -14.5q-38 0 -71.5 14.5t-58.5 39.5t-39.5 58.5t-14.5 71.5t14.5 71.5t39.5 58.5t58.5 39.5t71.5 14.5q37 0 70.5 -14.5t58.5 -39.5t39.5 -58.5t14.5 -71.5zM897 571q0 23 -9 43.5t-24 36t-35.5 24.5t-43.5 9
q-24 0 -44.5 -9t-36 -24.5t-24.5 -36t-9 -43.5t9 -43.5t24.5 -36t36 -24.5t44.5 -9q22 0 42.5 9t36 24.5t24.5 36t9 43.5z" />
    <glyph glyph-name="tilde" unicode="&#x2dc;" horiz-adv-x="324" 
d="M301 709q-16 -18 -36 -31t-49 -13q-19 0 -32.5 5.5t-25 12.5t-23 12.5t-25.5 5.5q-17 0 -31 -12t-25 -25l-30 50q14 22 36 36t45 14q18 0 31.5 -6t26 -12.5t25.5 -12.5t30 -6q14 0 27.5 9t27.5 24l28 -51v0z" />
    <glyph glyph-name="macron" unicode="&#xaf;" horiz-adv-x="237" 
d="M24 664v49h189v-49h-189z" />
    <glyph glyph-name="ring" unicode="&#x2da;" horiz-adv-x="169" 
d="M144 715q0 -25 -18 -43t-43 -18t-42.5 18t-17.5 43t17.5 43t42.5 18t43 -18t18 -43zM111 715q0 12 -8 20t-20 8t-19.5 -8t-7.5 -20t7.5 -19.5t19.5 -7.5t20 7.5t8 19.5z" />
    <glyph glyph-name="cedilla" unicode="&#xb8;" horiz-adv-x="245" 
d="M178 -174q-12 -20 -32.5 -32t-43.5 -12h-70v63q8 0 19.5 -0.5t22.5 -0.5q20 0 36 5t16 22q0 11 -8 18t-16 7q-12 0 -22 -13l-56 31l78 135l55 -32l-35 -62q31 -7 49.5 -31.5t18.5 -53.5q0 -25 -12 -44z" />
    <glyph glyph-name="caron" unicode="&#x2c7;" horiz-adv-x="272" 
d="M136 664l-112 92h69l43 -23l43 23h69z" />
    <glyph glyph-name="brokenbar" unicode="&#xa6;" horiz-adv-x="500" 
 />
    <glyph glyph-name="Eth" unicode="&#xd0;" horiz-adv-x="521" 
d="M497 378q0 -78 -30 -146.5t-81.5 -120t-120.5 -81.5t-146 -30h-37v340h-58v76h58v340h37q77 0 146 -30t120.5 -81.5t81.5 -120.5t30 -146zM422 378q0 57 -20.5 108.5t-56.5 92t-84.5 66.5t-103.5 33v-262h75v-76h-75v-262q55 7 103.5 33t84.5 66.5t56.5 92t20.5 108.5z
" />
    <glyph glyph-name="eth" unicode="&#xf0;" horiz-adv-x="466" 
d="M442 320q0 -65 -25 -123t-68 -102t-101.5 -69.5t-125.5 -25.5h-38v282h-60v76h60v282h38q65 0 123.5 -25.5t102 -69t69 -102t25.5 -123.5zM367 320q0 45 -16 86t-43.5 73.5t-65.5 54t-82 28.5v-204h52v-76h-52v-204q44 7 82 29t65.5 54t43.5 72.5t16 86.5z" />
    <glyph glyph-name="Thorn" unicode="&#xde;" horiz-adv-x="431" 
d="M407 378q0 -50 -17.5 -95.5t-49 -81.5t-74 -59.5t-91.5 -30.5v-111h-75v111q-19 3 -38.5 8.5t-37.5 14.5l32 68q23 -11 44 -15v569h75v-111q48 -7 90.5 -30.5t74 -59.5t49.5 -81.5t18 -95.5zM331 378q0 34 -11.5 65.5t-32.5 57t-49.5 43.5t-62.5 25v-382q34 7 62.5 24.5
t49.5 43t32.5 57t11.5 66.5z" />
    <glyph glyph-name="thorn" unicode="&#xfe;" horiz-adv-x="375" 
d="M351 286q0 -41 -14.5 -79t-40 -68.5t-61 -51.5t-76.5 -28v-175h-76v176q-12 0 -29.5 6t-29.5 12l32 68q7 -3 13.5 -5.5t13.5 -4.5v504h76v-126q40 -7 75 -27.5t61 -51t41 -69t15 -80.5zM276 286q0 27 -8.5 51.5t-24.5 44.5t-37.5 34.5t-46.5 20.5v-301q25 7 46.5 21.5
t37.5 34.5t24.5 44t8.5 50z" />
    <glyph glyph-name="bullet" unicode="&#x2022;" horiz-adv-x="280" 
d="M256 319q0 -24 -9 -45t-25 -36.5t-37 -24.5t-45 -9t-45 9t-37 24.5t-25 36.5t-9 45t9 45t25 36.5t37 25t45 9.5t45 -9.5t36.5 -25t25 -36.5t9.5 -45z" />
    <glyph glyph-name="degree" unicode="&#xb0;" horiz-adv-x="318" 
d="M294 617q0 -28 -10.5 -53t-29 -43.5t-43 -29t-52.5 -10.5t-52.5 10.5t-43 29t-29 43.5t-10.5 53t10.5 52.5t29 43t43 29t52.5 10.5t52.5 -10.5t43 -29t29 -43t10.5 -52.5zM239 617q0 16 -6.5 30.5t-17.5 25.5t-25.5 17.5t-30.5 6.5q-17 0 -31.5 -6.5t-25 -17.5t-17 -25.5
t-6.5 -30.5q0 -33 23.5 -57t56.5 -24q16 0 30.5 6.5t25.5 17.5t17.5 25.5t6.5 31.5z" />
    <glyph glyph-name="circumflex" unicode="&#x2c6;" horiz-adv-x="272" 
d="M179 664l-43 23l-43 -23h-69l112 92l112 -92h-69z" />
    <glyph glyph-name="Euro" unicode="&#x20ac;" horiz-adv-x="709" 
d="M656 611q-84 69 -192 69q-51 0 -97.5 -16.5t-85 -46t-67 -69.5t-41.5 -88h423l-30 -76h-404v-29h392l-30 -75h-346q16 -44 44 -81.5t65.5 -65t82 -43t94.5 -15.5q60 0 121 26v-81q-60 -20 -121 -20q-65 0 -124 21t-107.5 58.5t-83 88.5t-50.5 112h-75l30 75h32v29h-60
l30 76h39q14 64 49 118t84 93.5t109.5 62t126.5 22.5q60 0 116.5 -18.5t104.5 -53.5z" />
    <glyph glyph-name="trademark" unicode="&#x2122;" horiz-adv-x="447" 
d="M109 714v-278h-43v278h-42v42h126v-42h-41zM380 436v185q0 31 -21 57t-50 34v-276h-43v276q-29 -8 -50 -34t-21 -57v-185h-43v185q0 28 11 52.5t29.5 43t43 29t52.5 10.5q27 0 51.5 -11t43 -29.5t29.5 -43t11 -51.5v-185h-43z" />
    <glyph glyph-name="twosuperior" unicode="&#xb2;" horiz-adv-x="255" 
d="M24 404l118 129q17 18 29.5 41.5t12.5 48.5q0 24 -12 40.5t-30 27t-40 15t-42 4.5v46q31 0 61.5 -8.5t55 -25.5t39.5 -41.5t15 -57.5q0 -32 -16 -63.5t-39 -57.5l-48 -52h92v-46h-196z" />
    <glyph glyph-name="threesuperior" unicode="&#xb3;" horiz-adv-x="208" 
d="M184 531q0 -26 -10.5 -49t-28 -40t-40.5 -27.5t-49 -10.5h-29v46h29q34 0 58 24t24 57q0 34 -25.5 57.5t-61.5 23.5v47q14 0 23 7t9 18t-7 18.5t-18 7.5h-34v46h34q29 0 50 -21.5t21 -50.5q0 -24 -13 -40q32 -17 50 -46.5t18 -66.5z" />
    <glyph glyph-name="onesuperior" unicode="&#xb9;" horiz-adv-x="142" 
d="M71 393v262l-17 -17l-30 35l94 86v-366h-47z" />
    <glyph glyph-name="onequarter" unicode="&#xbc;" horiz-adv-x="553" 
d="M94 227v396l-30 -28l-40 43l129 119v-530h-59zM146 0h-60l383 758h60zM487 86v-86h-59v86h-185l237 445l7 -2v-384h20v-59h-20zM428 307l-87 -162h87v162z" />
    <glyph glyph-name="onehalf" unicode="&#xbd;" horiz-adv-x="722" 
d="M406 0l168 185q25 28 45 63t20 73q0 36 -17.5 62t-45 42t-60.5 23.5t-63 7.5v59q45 0 88.5 -12.5t78.5 -37t56.5 -60.5t21.5 -83q0 -49 -23.5 -95.5t-56.5 -82.5l-79 -86h143v-58h-276zM94 227v396l-30 -28l-40 43l129 119v-530h-59zM146 0h-60l383 758h60z" />
    <glyph glyph-name="threequarters" unicode="&#xbe;" horiz-adv-x="577" 
d="M252 427q0 -37 -15 -70.5t-40 -58.5t-59 -40t-71 -15h-39v58h38q26 0 49 10.5t40.5 27.5t28 40t10.5 48q0 26 -10.5 49t-28 40t-41 27t-50.5 10v59q20 0 33.5 13t13.5 31q0 17 -12 30t-30 13h-45v59h45q21 0 39 -8.5t32 -22.5t22 -32.5t8 -38.5q0 -37 -21 -62
q45 -24 74 -69t29 -98zM170 0h-60l383 758h60zM509 82v-86h-59v86h-185l237 445l7 -2v-384h20v-59h-20zM450 303l-87 -162h87v162z" />
    <glyph glyph-name="minus" unicode="&#x2212;" horiz-adv-x="426" 
d="M24 341v75h378v-75h-378z" />
    <glyph glyph-name="multiply" unicode="&#xd7;" horiz-adv-x="426" 
d="M213 326l-107 -108l-54 53l108 108l-107 106l53 54l107 -107l107 107l53 -54l-107 -106l108 -108l-54 -53z" />
    <glyph glyph-name="divide" unicode="&#xf7;" horiz-adv-x="426" 
d="M175 228v81h75v-81h-75zM175 448v81h75v-81h-75zM24 341v75h378v-75h-378z" />
    <glyph glyph-name="dotlessi" unicode="&#x131;" 
d="M24 0v640h75v-640h-75z" />
    <glyph glyph-name="daggerdbl" unicode="&#x2021;" horiz-adv-x="1197" 
d="M636 487h-34q-6 -15 -17 -31t-24 -25l45 -25l-9 -15l-45 25l4 -18l-135 -228l93 -170h-119l-35 64l-40 -67l-4 3l39 75l-75 137l-114 -212h-120l182 337h-19l28 53l-54 99l-108 -201h-51l131 243h98l-24 29h24v53h-17v11q6 3 8 11t4 17.5t7 18t19 11.5l-13 71h36l-12 -71
q13 -3 18 -11.5t7.5 -18l4.5 -17.5t9 -11v-11h-17v-53h24l-26 -29h293q2 7 13 17.5t16 14.5l5 -3l-6 -29h33zM375 487l-52 -97l28 -53h-19l80 -149l118 225l17 5l-46 25l9 16l45 -25q2 12 6.5 27.5t12.5 25.5h-199zM655 615q8 0 8 -12q0 -8 -8.5 -21.5t-20.5 -13.5
q-5 7 -5 11q0 10 7.5 23t18.5 13zM654 629q0 12 11 12q13 0 13 -12t-13 -12q-11 0 -11 12zM1131 372h-34q-6 -15 -17 -31t-24 -25l45 -25l-9 -15l-45 25l4 -18l-135 -228l93 -170h-119l-35 64l-40 -67l-4 3l39 75l-75 137l-114 -212h-120l182 337h-19l28 53l-54 99
l-108 -201h-51l131 243h98l-24 29h24v53h-17v11q6 3 8 11t4 17.5t7 18t19 11.5l-13 71h36l-12 -71q13 -3 18 -11.5t7.5 -18l4.5 -17.5t9 -11v-11h-17v-53h24l-26 -29h293q2 7 13 17.5t16 14.5l5 -3l-6 -29h33zM870 372l-52 -97l28 -53h-19l80 -149l118 225l17 5l-46 25l9 16
l45 -25q2 12 6.5 27.5t12.5 25.5h-199zM1150 500q8 0 8 -12q0 -8 -8.5 -21.5t-20.5 -13.5q-5 7 -5 11q0 10 7.5 23t18.5 13zM1149 514q0 12 11 12q13 0 13 -12t-13 -12q-11 0 -11 12z" />
    <glyph glyph-name="dagger" unicode="&#x2020;" horiz-adv-x="702" 
d="M636 487h-34q-6 -15 -17 -31t-24 -25l45 -25l-9 -15l-45 25l4 -18l-135 -228l93 -170h-119l-35 64l-40 -67l-4 3l39 75l-75 137l-114 -212h-120l182 337h-19l28 53l-54 99l-108 -201h-51l131 243h98l-24 29h24v53h-17v11q6 3 8 11t4 17.5t7 18t19 11.5l-13 71h36l-12 -71
q13 -3 18 -11.5t7.5 -18l4.5 -17.5t9 -11v-11h-17v-53h24l-26 -29h293q2 7 13 17.5t16 14.5l5 -3l-6 -29h33zM375 487l-52 -97l28 -53h-19l80 -149l118 225l17 5l-46 25l9 16l45 -25q2 12 6.5 27.5t12.5 25.5h-199zM655 615q8 0 8 -12q0 -8 -8.5 -21.5t-20.5 -13.5
q-5 7 -5 11q0 10 7.5 23t18.5 13zM654 629q0 12 11 12q13 0 13 -12t-13 -12q-11 0 -11 12z" />
    <glyph glyph-name="Agrave" unicode="&#xc0;" horiz-adv-x="493" 
d="M426 217v-217h-76v217h-250v-217h-76v203q0 85 25.5 165.5t71.5 149t110.5 122.5t142.5 87l52 22v-456h43v-76h-43zM350 632q-95 -55 -158.5 -144t-83.5 -195h242v339zM197 780v91l222 -62v-29h-222z" />
    <glyph glyph-name="Aacute" unicode="&#xc1;" horiz-adv-x="493" 
d="M426 217v-217h-76v217h-250v-217h-76v203q0 85 25.5 165.5t71.5 149t110.5 122.5t142.5 87l52 22v-456h43v-76h-43zM350 632q-95 -55 -158.5 -144t-83.5 -195h242v339zM199 780v29l222 62v-91h-222z" />
    <glyph glyph-name="Acircumflex" unicode="&#xc2;" horiz-adv-x="493" 
d="M426 217v-217h-76v217h-250v-217h-76v203q0 85 25.5 165.5t71.5 149t110.5 122.5t142.5 87l52 22v-456h43v-76h-43zM350 632q-95 -55 -158.5 -144t-83.5 -195h242v339zM356 780l-43 23l-43 -23h-69l112 92l112 -92h-69z" />
    <glyph glyph-name="Atilde" unicode="&#xc3;" horiz-adv-x="493" 
d="M426 217v-217h-76v217h-250v-217h-76v203q0 85 25.5 165.5t71.5 149t110.5 122.5t142.5 87l52 22v-456h43v-76h-43zM350 632q-95 -55 -158.5 -144t-83.5 -195h242v339zM432 825q-16 -18 -36 -31t-49 -13q-19 0 -32.5 5.5t-25 12.5t-23 12.5t-25.5 5.5q-17 0 -31 -12
t-25 -25l-30 50q14 22 36 36t45 14q18 0 31.5 -6t26 -12.5t25.5 -12.5t30 -6q14 0 27.5 9t27.5 24l28 -51v0z" />
    <glyph glyph-name="Adieresis" unicode="&#xc4;" horiz-adv-x="493" 
d="M426 217v-217h-76v217h-250v-217h-76v203q0 85 25.5 165.5t71.5 149t110.5 122.5t142.5 87l52 22v-456h43v-76h-43zM350 632q-95 -55 -158.5 -144t-83.5 -195h242v339zM252 780v68h66v-68h-66zM342 780v68h66v-68h-66z" />
    <glyph glyph-name="Aring" unicode="&#xc5;" horiz-adv-x="493" 
d="M426 217v-217h-76v217h-250v-217h-76v203q0 85 25.5 165.5t71.5 149t110.5 122.5t142.5 87l52 22v-456h43v-76h-43zM350 632q-95 -55 -158.5 -144t-83.5 -195h242v339zM408 792q0 -25 -18 -43t-43 -18t-42.5 18t-17.5 43t17.5 43t42.5 18t43 -18t18 -43zM375 792
q0 12 -8 20t-20 8t-19.5 -8t-7.5 -20t7.5 -19.5t19.5 -7.5t20 7.5t8 19.5z" />
    <glyph glyph-name="Ccedilla" unicode="&#xc7;" horiz-adv-x="426" 
d="M402 0q-78 0 -146.5 30t-120 81.5t-81.5 120t-30 146.5q0 77 30 146t81.5 120.5t120 81.5t146.5 30v-75q-62 0 -117 -24t-96.5 -65.5t-65.5 -96.5t-24 -117t24 -117t65.5 -96t96.5 -65t117 -24v-76v0zM301 -137q-12 -20 -32.5 -32t-43.5 -12h-70v63q8 0 19.5 -0.5
t22.5 -0.5q20 0 36 5t16 22q0 11 -8 18t-16 7q-12 0 -22 -13l-56 31l78 135l55 -32l-35 -62q31 -7 49.5 -31.5t18.5 -53.5q0 -25 -12 -44z" />
    <glyph glyph-name="Egrave" unicode="&#xc8;" horiz-adv-x="482" 
d="M458 0q-73 0 -138 26.5t-116 72.5t-83 108t-39 133h-58v76h58q7 71 39.5 133t83 108t116 72.5t137.5 26.5v-75q-57 0 -108.5 -20.5t-92 -56.5t-66.5 -84.5t-33 -103.5h257v-76h-257q7 -56 33 -104t66.5 -83.5t92 -56t108.5 -20.5v-76v0zM231 780v91l222 -62v-29h-222z
" />
    <glyph glyph-name="Eacute" unicode="&#xc9;" horiz-adv-x="482" 
d="M458 0q-73 0 -138 26.5t-116 72.5t-83 108t-39 133h-58v76h58q7 71 39.5 133t83 108t116 72.5t137.5 26.5v-75q-57 0 -108.5 -20.5t-92 -56.5t-66.5 -84.5t-33 -103.5h257v-76h-257q7 -56 33 -104t66.5 -83.5t92 -56t108.5 -20.5v-76v0zM235 780v29l222 62v-91h-222z" />
    <glyph glyph-name="Ecircumflex" unicode="&#xca;" horiz-adv-x="482" 
d="M458 0q-73 0 -138 26.5t-116 72.5t-83 108t-39 133h-58v76h58q7 71 39.5 133t83 108t116 72.5t137.5 26.5v-75q-57 0 -108.5 -20.5t-92 -56.5t-66.5 -84.5t-33 -103.5h257v-76h-257q7 -56 33 -104t66.5 -83.5t92 -56t108.5 -20.5v-76v0zM370 780l-43 23l-43 -23h-69
l112 92l112 -92h-69z" />
    <glyph glyph-name="Edieresis" unicode="&#xcb;" horiz-adv-x="482" 
d="M458 0q-73 0 -138 26.5t-116 72.5t-83 108t-39 133h-58v76h58q7 71 39.5 133t83 108t116 72.5t137.5 26.5v-75q-57 0 -108.5 -20.5t-92 -56.5t-66.5 -84.5t-33 -103.5h257v-76h-257q7 -56 33 -104t66.5 -83.5t92 -56t108.5 -20.5v-76v0zM272 780v68h66v-68h-66zM362 780
v68h66v-68h-66z" />
    <glyph glyph-name="Igrave" unicode="&#xcc;" 
d="M24 0v756h75v-756h-75zM-48 780v91l222 -62v-29h-222z" />
    <glyph glyph-name="Iacute" unicode="&#xcd;" 
d="M24 0v756h75v-756h-75zM-48 780v29l222 62v-91h-222z" />
    <glyph glyph-name="Icircumflex" unicode="&#xce;" 
d="M24 0v756h75v-756h-75zM106 780l-43 23l-43 -23h-69l112 92l112 -92h-69z" />
    <glyph glyph-name="Idieresis" unicode="&#xcf;" 
d="M24 0v756h75v-756h-75zM-15 780v68h66v-68h-66zM75 780v68h66v-68h-66z" />
    <glyph glyph-name="Ntilde" unicode="&#xd1;" horiz-adv-x="460" 
d="M361 0v378q0 58 -20.5 110t-55.5 92t-83 66t-103 32v-678h-75v756h37q78 0 146.5 -30t119 -81t80 -120t29.5 -147v-378h-75zM328 825q-16 -18 -36 -31t-49 -13q-19 0 -32.5 5.5t-25 12.5t-23 12.5t-25.5 5.5q-17 0 -31 -12t-25 -25l-30 50q14 22 36 36t45 14
q18 0 31.5 -6t26 -12.5t25.5 -12.5t30 -6q14 0 27.5 9t27.5 24l28 -51v0z" />
    <glyph glyph-name="Ograve" unicode="&#xd2;" horiz-adv-x="804" 
d="M780 378q0 -78 -30 -146.5t-81.5 -120t-120.5 -81.5t-146 -30q-78 0 -146.5 30t-120 81.5t-81.5 120t-30 146.5q0 77 30 146t81.5 120.5t120 81.5t146.5 30q77 0 146 -30t120.5 -81.5t81.5 -120.5t30 -146zM704 378q0 62 -24 117t-65 96.5t-96 65.5t-117 24t-117 -24
t-96.5 -65.5t-65.5 -96.5t-24 -117t24 -117t65.5 -96t96.5 -65t117 -24q61 0 116 24t96.5 65.5t65.5 96t24 116.5zM291 780v91l222 -62v-29h-222z" />
    <glyph glyph-name="Oacute" unicode="&#xd3;" horiz-adv-x="804" 
d="M780 378q0 -78 -30 -146.5t-81.5 -120t-120.5 -81.5t-146 -30q-78 0 -146.5 30t-120 81.5t-81.5 120t-30 146.5q0 77 30 146t81.5 120.5t120 81.5t146.5 30q77 0 146 -30t120.5 -81.5t81.5 -120.5t30 -146zM704 378q0 62 -24 117t-65 96.5t-96 65.5t-117 24t-117 -24
t-96.5 -65.5t-65.5 -96.5t-24 -117t24 -117t65.5 -96t96.5 -65t117 -24q61 0 116 24t96.5 65.5t65.5 96t24 116.5zM291 780v29l222 62v-91h-222z" />
    <glyph glyph-name="Ocircumflex" unicode="&#xd4;" horiz-adv-x="804" 
d="M780 378q0 -78 -30 -146.5t-81.5 -120t-120.5 -81.5t-146 -30q-78 0 -146.5 30t-120 81.5t-81.5 120t-30 146.5q0 77 30 146t81.5 120.5t120 81.5t146.5 30q77 0 146 -30t120.5 -81.5t81.5 -120.5t30 -146zM704 378q0 62 -24 117t-65 96.5t-96 65.5t-117 24t-117 -24
t-96.5 -65.5t-65.5 -96.5t-24 -117t24 -117t65.5 -96t96.5 -65t117 -24q61 0 116 24t96.5 65.5t65.5 96t24 116.5zM445 780l-43 23l-43 -23h-69l112 92l112 -92h-69z" />
    <glyph glyph-name="Otilde" unicode="&#xd5;" horiz-adv-x="804" 
d="M780 378q0 -78 -30 -146.5t-81.5 -120t-120.5 -81.5t-146 -30q-78 0 -146.5 30t-120 81.5t-81.5 120t-30 146.5q0 77 30 146t81.5 120.5t120 81.5t146.5 30q77 0 146 -30t120.5 -81.5t81.5 -120.5t30 -146zM704 378q0 62 -24 117t-65 96.5t-96 65.5t-117 24t-117 -24
t-96.5 -65.5t-65.5 -96.5t-24 -117t24 -117t65.5 -96t96.5 -65t117 -24q61 0 116 24t96.5 65.5t65.5 96t24 116.5zM540 825q-16 -18 -36 -31t-49 -13q-19 0 -32.5 5.5t-25 12.5t-23 12.5t-25.5 5.5q-17 0 -31 -12t-25 -25l-30 50q14 22 36 36t45 14q18 0 31.5 -6t26 -12.5
t25.5 -12.5t30 -6q14 0 27.5 9t27.5 24l28 -51v0z" />
    <glyph glyph-name="Odieresis" unicode="&#xd6;" horiz-adv-x="804" 
d="M780 378q0 -78 -30 -146.5t-81.5 -120t-120.5 -81.5t-146 -30q-78 0 -146.5 30t-120 81.5t-81.5 120t-30 146.5q0 77 30 146t81.5 120.5t120 81.5t146.5 30q77 0 146 -30t120.5 -81.5t81.5 -120.5t30 -146zM704 378q0 62 -24 117t-65 96.5t-96 65.5t-117 24t-117 -24
t-96.5 -65.5t-65.5 -96.5t-24 -117t24 -117t65.5 -96t96.5 -65t117 -24q61 0 116 24t96.5 65.5t65.5 96t24 116.5zM324 780v68h66v-68h-66zM414 780v68h66v-68h-66z" />
    <glyph glyph-name="Scaron" unicode="&#x160;" horiz-adv-x="392" 
d="M299 386l23.5 -34.5t22.5 -39.5t16.5 -44.5t6.5 -50.5q0 -41 -15.5 -79.5t-43.5 -69.5t-67.5 -49.5t-87.5 -18.5q-34 0 -67 10t-63 28l39 65q44 -28 93 -28q32 0 57.5 13t43 34t27 46.5t9.5 50.5q0 45 -27 84l-180 256q-26 37 -26 77q0 22 10 43.5t27.5 38.5t40 27
t46.5 10q40 0 73 -20l-39 -64q-7 5 -15.5 7t-16.5 2q-17 0 -33.5 -14t-16.5 -34q0 -7 3 -14.5t8 -14.5zM196 780l-112 92h69l43 -23l43 23h69z" />
    <glyph glyph-name="Ugrave" unicode="&#xd9;" horiz-adv-x="396" 
d="M372 174q0 -35 -13.5 -66.5t-37 -55.5t-55.5 -38t-68 -14q-35 0 -66.5 13.5t-55.5 37t-38 55.5t-14 68v582h76v-582q0 -20 8 -37.5t21.5 -31t31 -21.5t37.5 -8q21 0 39 8t31.5 21.5t21 31t7.5 37.5v582h75v-582v0zM87 780v91l222 -62v-29h-222z" />
    <glyph glyph-name="Uacute" unicode="&#xda;" horiz-adv-x="396" 
d="M372 174q0 -35 -13.5 -66.5t-37 -55.5t-55.5 -38t-68 -14q-35 0 -66.5 13.5t-55.5 37t-38 55.5t-14 68v582h76v-582q0 -20 8 -37.5t21.5 -31t31 -21.5t37.5 -8q21 0 39 8t31.5 21.5t21 31t7.5 37.5v582h75v-582v0zM87 780v29l222 62v-91h-222z" />
    <glyph glyph-name="Ucircumflex" unicode="&#xdb;" horiz-adv-x="396" 
d="M372 174q0 -35 -13.5 -66.5t-37 -55.5t-55.5 -38t-68 -14q-35 0 -66.5 13.5t-55.5 37t-38 55.5t-14 68v582h76v-582q0 -20 8 -37.5t21.5 -31t31 -21.5t37.5 -8q21 0 39 8t31.5 21.5t21 31t7.5 37.5v582h75v-582v0zM241 780l-43 23l-43 -23h-69l112 92l112 -92h-69z" />
    <glyph glyph-name="Udieresis" unicode="&#xdc;" horiz-adv-x="396" 
d="M372 174q0 -35 -13.5 -66.5t-37 -55.5t-55.5 -38t-68 -14q-35 0 -66.5 13.5t-55.5 37t-38 55.5t-14 68v582h76v-582q0 -20 8 -37.5t21.5 -31t31 -21.5t37.5 -8q21 0 39 8t31.5 21.5t21 31t7.5 37.5v582h75v-582v0zM120 780v68h66v-68h-66zM210 780v68h66v-68h-66z" />
    <glyph glyph-name="Yacute" unicode="&#xdd;" horiz-adv-x="431" 
d="M253 249v-249h-75v249l-154 507h79l112 -371l113 371h79zM104 780v29l222 62v-91h-222z" />
    <glyph glyph-name="Ydieresis" unicode="&#x178;" horiz-adv-x="431" 
d="M253 249v-249h-75v249l-154 507h79l112 -371l113 371h79zM137 780v68h66v-68h-66zM227 780v68h66v-68h-66z" />
    <glyph glyph-name="Zcaron" unicode="&#x17d;" horiz-adv-x="398" 
d="M131 76h189v-76h-296l243 681h-187v75h294zM199 780l-112 92h69l43 -23l43 23h69z" />
    <glyph glyph-name="agrave" unicode="&#xe0;" horiz-adv-x="424" 
d="M370 194v-194h-75v194h-196v-194h-75v189q0 72 22 141.5t65.5 130t108 109.5t150.5 81v-382h30v-75h-30zM295 533q-73 -43 -121.5 -112.5t-65.5 -151.5h187v264zM145 664v91l222 -62v-29h-222z" />
    <glyph glyph-name="aacute" unicode="&#xe1;" horiz-adv-x="424" 
d="M370 194v-194h-75v194h-196v-194h-75v189q0 72 22 141.5t65.5 130t108 109.5t150.5 81v-382h30v-75h-30zM295 533q-73 -43 -121.5 -112.5t-65.5 -151.5h187v264zM145 664v29l222 62v-91h-222z" />
    <glyph glyph-name="acircumflex" unicode="&#xe2;" horiz-adv-x="424" 
d="M370 194v-194h-75v194h-196v-194h-75v189q0 72 22 141.5t65.5 130t108 109.5t150.5 81v-382h30v-75h-30zM295 533q-73 -43 -121.5 -112.5t-65.5 -151.5h187v264zM300 664l-43 23l-43 -23h-69l112 92l112 -92h-69z" />
    <glyph glyph-name="atilde" unicode="&#xe3;" horiz-adv-x="424" 
d="M370 194v-194h-75v194h-196v-194h-75v189q0 72 22 141.5t65.5 130t108 109.5t150.5 81v-382h30v-75h-30zM295 533q-73 -43 -121.5 -112.5t-65.5 -151.5h187v264zM375 709q-16 -18 -36 -31t-49 -13q-19 0 -32.5 5.5t-25 12.5t-23 12.5t-25.5 5.5q-17 0 -31 -12t-25 -25
l-30 50q14 22 36 36t45 14q18 0 31.5 -6t26 -12.5t25.5 -12.5t30 -6q14 0 27.5 9t27.5 24l28 -51v0z" />
    <glyph glyph-name="adieresis" unicode="&#xe4;" horiz-adv-x="424" 
d="M370 194v-194h-75v194h-196v-194h-75v189q0 72 22 141.5t65.5 130t108 109.5t150.5 81v-382h30v-75h-30zM295 533q-73 -43 -121.5 -112.5t-65.5 -151.5h187v264zM185 664v68h66v-68h-66zM275 664v68h66v-68h-66z" />
    <glyph glyph-name="aring" unicode="&#xe5;" horiz-adv-x="424" 
d="M370 194v-194h-75v194h-196v-194h-75v189q0 72 22 141.5t65.5 130t108 109.5t150.5 81v-382h30v-75h-30zM295 533q-73 -43 -121.5 -112.5t-65.5 -151.5h187v264zM343 697q0 -25 -18 -43t-43 -18t-42.5 18t-17.5 43t17.5 43t42.5 18t43 -18t18 -43zM310 697q0 12 -8 20
t-20 8t-19.5 -8t-7.5 -20t7.5 -19.5t19.5 -7.5t20 7.5t8 19.5z" />
    <glyph glyph-name="ccedilla" unicode="&#xe7;" horiz-adv-x="368" 
d="M344 0q-66 0 -124 25.5t-101.5 69t-69 101.5t-25.5 124q0 65 25.5 123.5t69 102t101.5 69t124 25.5v-75q-50 0 -94.5 -19.5t-77.5 -53t-52.5 -78t-19.5 -94.5q0 -51 19 -95.5t52 -77.5t77.5 -52t95.5 -19v-76v0zM249 -135q-12 -20 -32.5 -32t-43.5 -12h-70v63
q8 0 19.5 -0.5t22.5 -0.5q20 0 36 5t16 22q0 11 -8 18t-16 7q-12 0 -22 -13l-56 31l78 135l55 -32l-35 -62q31 -7 49.5 -31.5t18.5 -53.5q0 -25 -12 -44z" />
    <glyph glyph-name="egrave" unicode="&#xe8;" horiz-adv-x="408" 
d="M384 0q-61 0 -115.5 21.5t-97 59.5t-70.5 89.5t-35 111.5h-42v76h42q7 59 35 110.5t71 89.5t97.5 60t114.5 22v-75q-45 0 -86 -16t-73 -43.5t-53.5 -65.5t-28.5 -82h206v-76h-206q7 -44 28 -81.5t53.5 -65t73 -43.5t86.5 -16v-76v0zM160 664v91l222 -62v-29h-222z" />
    <glyph glyph-name="eacute" unicode="&#xe9;" horiz-adv-x="408" 
d="M384 0q-61 0 -115.5 21.5t-97 59.5t-70.5 89.5t-35 111.5h-42v76h42q7 59 35 110.5t71 89.5t97.5 60t114.5 22v-75q-45 0 -86 -16t-73 -43.5t-53.5 -65.5t-28.5 -82h206v-76h-206q7 -44 28 -81.5t53.5 -65t73 -43.5t86.5 -16v-76v0zM162 664v29l222 62v-91h-222z" />
    <glyph glyph-name="ecircumflex" unicode="&#xea;" horiz-adv-x="408" 
d="M384 0q-61 0 -115.5 21.5t-97 59.5t-70.5 89.5t-35 111.5h-42v76h42q7 59 35 110.5t71 89.5t97.5 60t114.5 22v-75q-45 0 -86 -16t-73 -43.5t-53.5 -65.5t-28.5 -82h206v-76h-206q7 -44 28 -81.5t53.5 -65t73 -43.5t86.5 -16v-76v0zM312 664l-43 23l-43 -23h-69l112 92
l112 -92h-69z" />
    <glyph glyph-name="edieresis" unicode="&#xeb;" horiz-adv-x="408" 
d="M384 0q-61 0 -115.5 21.5t-97 59.5t-70.5 89.5t-35 111.5h-42v76h42q7 59 35 110.5t71 89.5t97.5 60t114.5 22v-75q-45 0 -86 -16t-73 -43.5t-53.5 -65.5t-28.5 -82h206v-76h-206q7 -44 28 -81.5t53.5 -65t73 -43.5t86.5 -16v-76v0zM200 664v68h66v-68h-66zM290 664v68
h66v-68h-66z" />
    <glyph glyph-name="igrave" unicode="&#xec;" 
d="M24 0v640h75v-640h-75zM-48 664v91l222 -62v-29h-222z" />
    <glyph glyph-name="iacute" unicode="&#xed;" 
d="M24 0v640h75v-640h-75zM-48 664v29l222 62v-91h-222z" />
    <glyph glyph-name="icircumflex" unicode="&#xee;" 
d="M24 0v640h75v-640h-75zM106 664l-43 23l-43 -23h-69l112 92l112 -92h-69z" />
    <glyph glyph-name="idieresis" unicode="&#xef;" 
d="M24 0v640h75v-640h-75zM-15 664v68h66v-68h-66zM75 664v68h66v-68h-66z" />
    <glyph glyph-name="ntilde" unicode="&#xf1;" horiz-adv-x="403" 
d="M303 0v320q0 44 -15.5 84.5t-42.5 73t-64.5 54.5t-81.5 29v-561h-75v640h38q65 0 122.5 -25.5t101 -69t68.5 -102t25 -123.5v-320h-76zM305 709q-16 -18 -36 -31t-49 -13q-19 0 -32.5 5.5t-25 12.5t-23 12.5t-25.5 5.5q-17 0 -31 -12t-25 -25l-30 50q14 22 36 36t45 14
q18 0 31.5 -6t26 -12.5t25.5 -12.5t30 -6q14 0 27.5 9t27.5 24l28 -51v0z" />
    <glyph glyph-name="ograve" unicode="&#xf2;" horiz-adv-x="688" 
d="M664 320q0 -66 -25.5 -124t-69 -101.5t-102 -69t-123.5 -25.5q-66 0 -124 25t-101.5 68.5t-69 102t-25.5 124.5q0 65 25.5 123.5t69 102t101.5 69t124 25.5q64 0 122 -25.5t102 -69t70 -101.5t26 -124zM589 320q0 50 -19.5 94.5t-53 78t-78 53t-94.5 19.5t-94.5 -19.5
t-77.5 -53t-52.5 -78t-19.5 -94.5t19.5 -94.5t52.5 -77.5t77.5 -52.5t94.5 -19.5t94.5 19.5t78 52.5t53 77.5t19.5 94.5zM233 664v91l222 -62v-29h-222z" />
    <glyph glyph-name="oacute" unicode="&#xf3;" horiz-adv-x="688" 
d="M664 320q0 -66 -25.5 -124t-69 -101.5t-102 -69t-123.5 -25.5q-66 0 -124 25t-101.5 68.5t-69 102t-25.5 124.5q0 65 25.5 123.5t69 102t101.5 69t124 25.5q64 0 122 -25.5t102 -69t70 -101.5t26 -124zM589 320q0 50 -19.5 94.5t-53 78t-78 53t-94.5 19.5t-94.5 -19.5
t-77.5 -53t-52.5 -78t-19.5 -94.5t19.5 -94.5t52.5 -77.5t77.5 -52.5t94.5 -19.5t94.5 19.5t78 52.5t53 77.5t19.5 94.5zM233 664v29l222 62v-91h-222z" />
    <glyph glyph-name="ocircumflex" unicode="&#xf4;" horiz-adv-x="688" 
d="M664 320q0 -66 -25.5 -124t-69 -101.5t-102 -69t-123.5 -25.5q-66 0 -124 25t-101.5 68.5t-69 102t-25.5 124.5q0 65 25.5 123.5t69 102t101.5 69t124 25.5q64 0 122 -25.5t102 -69t70 -101.5t26 -124zM589 320q0 50 -19.5 94.5t-53 78t-78 53t-94.5 19.5t-94.5 -19.5
t-77.5 -53t-52.5 -78t-19.5 -94.5t19.5 -94.5t52.5 -77.5t77.5 -52.5t94.5 -19.5t94.5 19.5t78 52.5t53 77.5t19.5 94.5zM387 664l-43 23l-43 -23h-69l112 92l112 -92h-69z" />
    <glyph glyph-name="otilde" unicode="&#xf5;" horiz-adv-x="688" 
d="M664 320q0 -66 -25.5 -124t-69 -101.5t-102 -69t-123.5 -25.5q-66 0 -124 25t-101.5 68.5t-69 102t-25.5 124.5q0 65 25.5 123.5t69 102t101.5 69t124 25.5q64 0 122 -25.5t102 -69t70 -101.5t26 -124zM589 320q0 50 -19.5 94.5t-53 78t-78 53t-94.5 19.5t-94.5 -19.5
t-77.5 -53t-52.5 -78t-19.5 -94.5t19.5 -94.5t52.5 -77.5t77.5 -52.5t94.5 -19.5t94.5 19.5t78 52.5t53 77.5t19.5 94.5zM482 709q-16 -18 -36 -31t-49 -13q-19 0 -32.5 5.5t-25 12.5t-23 12.5t-25.5 5.5q-17 0 -31 -12t-25 -25l-30 50q14 22 36 36t45 14q18 0 31.5 -6
t26 -12.5t25.5 -12.5t30 -6q14 0 27.5 9t27.5 24l28 -51v0z" />
    <glyph glyph-name="odieresis" unicode="&#xf6;" horiz-adv-x="688" 
d="M664 320q0 -66 -25.5 -124t-69 -101.5t-102 -69t-123.5 -25.5q-66 0 -124 25t-101.5 68.5t-69 102t-25.5 124.5q0 65 25.5 123.5t69 102t101.5 69t124 25.5q64 0 122 -25.5t102 -69t70 -101.5t26 -124zM589 320q0 50 -19.5 94.5t-53 78t-78 53t-94.5 19.5t-94.5 -19.5
t-77.5 -53t-52.5 -78t-19.5 -94.5t19.5 -94.5t52.5 -77.5t77.5 -52.5t94.5 -19.5t94.5 19.5t78 52.5t53 77.5t19.5 94.5zM266 664v68h66v-68h-66zM356 664v68h66v-68h-66z" />
    <glyph glyph-name="scaron" unicode="&#x161;" horiz-adv-x="344" 
d="M285 293q17 -24 26 -53t9 -57q0 -35 -13 -68.5t-37 -59.5t-58 -42.5t-76 -16.5q-59 0 -112 32l39 64q16 -11 36 -16t37 -5q25 0 45 10t34 26t21.5 36t7.5 40q0 34 -21 66l-150 217q-22 31 -22 66q0 21 9 40t24 34t35 24t43 9q32 0 62 -18l-40 -64q-5 4 -11 5.5t-11 1.5
q-12 0 -23 -7.5t-11 -21.5q0 -4 1.5 -12.5t9.5 -19.5l146 -210v0zM163 655l-112 92h69l43 -23l43 23h69z" />
    <glyph glyph-name="ugrave" unicode="&#xf9;" horiz-adv-x="350" 
d="M326 151q0 -30 -12 -57.5t-32 -48t-48 -33t-59 -12.5t-58.5 12t-48 32.5t-32.5 48t-12 58.5v489h76v-489q0 -31 22 -53t53 -22t53 22t22 53v489h76v-489v0zM64 664v91l222 -62v-29h-222z" />
    <glyph glyph-name="uacute" unicode="&#xfa;" horiz-adv-x="350" 
d="M326 151q0 -30 -12 -57.5t-32 -48t-48 -33t-59 -12.5t-58.5 12t-48 32.5t-32.5 48t-12 58.5v489h76v-489q0 -31 22 -53t53 -22t53 22t22 53v489h76v-489v0zM64 664v29l222 62v-91h-222z" />
    <glyph glyph-name="ucircumflex" unicode="&#xfb;" horiz-adv-x="350" 
d="M326 151q0 -30 -12 -57.5t-32 -48t-48 -33t-59 -12.5t-58.5 12t-48 32.5t-32.5 48t-12 58.5v489h76v-489q0 -31 22 -53t53 -22t53 22t22 53v489h76v-489v0zM218 664l-43 23l-43 -23h-69l112 92l112 -92h-69z" />
    <glyph glyph-name="udieresis" unicode="&#xfc;" horiz-adv-x="350" 
d="M326 151q0 -30 -12 -57.5t-32 -48t-48 -33t-59 -12.5t-58.5 12t-48 32.5t-32.5 48t-12 58.5v489h76v-489q0 -31 22 -53t53 -22t53 22t22 53v489h76v-489v0zM97 664v68h66v-68h-66zM187 664v68h66v-68h-66z" />
    <glyph glyph-name="yacute" unicode="&#xfd;" horiz-adv-x="386" 
d="M230 206v-206h-75v206l-131 434h78l91 -298l90 298h79zM82 664v29l222 62v-91h-222z" />
    <glyph glyph-name="ydieresis" unicode="&#xff;" horiz-adv-x="386" 
d="M230 206v-206h-75v206l-131 434h78l91 -298l90 298h79zM115 664v68h66v-68h-66zM205 664v68h66v-68h-66z" />
    <glyph glyph-name="zcaron" unicode="&#x17e;" horiz-adv-x="357" 
d="M132 76h148v-76h-256l202 565h-148v75h255zM193 659l-112 92h69l43 -23l43 23h69z" />
    <glyph glyph-name="space" unicode=" " horiz-adv-x="250" 
 />
    </font>
</defs>
</svg>
